<svg width="69" height="48" viewBox="0 0 69 48" fill="none" xmlns="http://www.w3.org/2000/svg">
<g clip-path="url(#clip0_906_3574)">
<path d="M0 0H10.4301C15.2835 0 18.1466 0.565353 20.496 2.00125C23.3591 3.69231 24.9952 7.12946 24.9952 11.4872C24.9952 15.2846 23.6684 18.4065 21.2093 20.2026C18.9098 21.8937 16.1514 22.5641 11.0386 22.5641H3.78595V37.8937H0V0ZM10.7842 19.122C14.2609 19.122 16.4606 18.7667 18.0419 17.8412C20.0371 16.7655 21.1594 14.404 21.1594 11.4371C21.1594 7.74484 19.6231 5.12821 16.9146 4.25766C15.2286 3.69231 12.8792 3.44215 9.14812 3.44215H3.78595V19.127H10.7892L10.7842 19.122Z" fill="#1D1D1B"/>
<path d="M0 0H10.4301C15.2835 0 18.1466 0.565353 20.496 2.00125C23.3591 3.69231 24.9952 7.12946 24.9952 11.4872C24.9952 15.2846 23.6684 18.4065 21.2093 20.2026C18.9098 21.8937 16.1514 22.5641 11.0386 22.5641H3.78595V37.8937H0V0ZM10.7842 19.122C14.2609 19.122 16.4606 18.7667 18.0419 17.8412C20.0371 16.7655 21.1594 14.404 21.1594 11.4371C21.1594 7.74484 19.6231 5.12821 16.9146 4.25766C15.2286 3.69231 12.8792 3.44215 9.14812 3.44215H3.78595V19.127H10.7892L10.7842 19.122Z" fill="#1D1D1B"/>
<path d="M64.0416 34.4515V0H60.2556V34.4515H52.978V0H49.1971V34.4515H42.0242V29.2633C41.0166 31.0694 39.7397 32.6854 38.2383 34.0813V37.8887H64.8995L66.3311 44.863H68.9897V34.4565H64.0316L64.0416 34.4515Z" fill="#1D1D1B"/>
<path d="M42.0291 8.69543V0H38.2432V3.80238C39.7396 5.21826 41.0215 6.85929 42.0291 8.69543Z" fill="#1D1D1B"/>
<path d="M24.0127 0C22.9353 0 21.8878 0.100063 20.8603 0.255159C21.0349 0.350219 21.2094 0.440275 21.379 0.545341C22.5612 1.24078 23.499 2.26141 24.307 3.41213C32.1333 3.62727 38.1938 9.26579 39.1166 16.9456H25.6788C25.175 18.2164 24.4617 19.3171 23.5887 20.2627H39.1615C38.4682 28.2376 31.854 34.5266 23.8032 34.5266C17.9323 34.5266 14.0765 31.5547 11.1136 27.6423H7.07324C10.7295 34.4315 16.356 37.8987 23.7633 37.8987C34.6722 37.8987 42.9225 29.7736 42.9225 19.0769C42.9225 8.38024 34.8718 0 24.0127 0Z" fill="url(#paint0_linear_906_3574)"/>
<path d="M10.4148 42.7518C10.1605 42.5666 9.87115 42.4966 9.34241 42.4966H8.72389V41.456H10.5944V40.8906H8.13031V44.9632H9.28256C9.78635 44.9632 10.0856 44.9031 10.335 44.743C10.6543 44.5529 10.8338 44.1727 10.8338 43.7074C10.8338 43.2871 10.6842 42.9419 10.4148 42.7468V42.7518ZM8.72389 43.062H9.31248C9.65167 43.062 9.84621 43.092 9.98089 43.177C10.1355 43.2571 10.2303 43.4622 10.2303 43.7174C10.2303 44.0326 10.1056 44.2527 9.88112 44.3278C9.72649 44.3828 9.50203 44.4078 9.15287 44.4078H8.72888V43.067L8.72389 43.062ZM17.9369 40.8956H18.5354V44.9682H17.9369V43.157H16.1561V44.9682H15.5576V40.8956H16.1561V42.5917H17.9369V40.8956ZM14.1659 40.8956H14.7146V44.9682H14.116V41.9162L11.9861 44.9682H11.4374V40.8956H12.036V43.9525L14.1659 40.8956ZM22.6207 43.7424H23.2791L23.1943 43.8975C22.7903 44.653 22.1667 45.0332 21.3387 45.0332C20.1266 45.0332 19.2138 44.1326 19.2138 42.9419C19.2138 41.7511 20.1166 40.8256 21.3138 40.8256C22.1518 40.8256 22.8651 41.2608 23.1793 41.9613L23.2442 42.1114H22.5907L22.5608 42.0613C22.4211 41.8362 22.3214 41.7311 22.1518 41.6261C21.9124 41.476 21.633 41.3959 21.3287 41.3959C20.4658 41.3959 19.8174 42.0563 19.8174 42.9269C19.8174 43.7974 20.5007 44.4678 21.3337 44.4678C21.6679 44.4678 21.9922 44.3578 22.2416 44.1576C22.3513 44.0626 22.4411 43.9775 22.5857 43.7824L22.6157 43.7424H22.6207ZM5.96549 42.7868C5.7111 42.6067 5.41181 42.5366 4.86811 42.5366H4.23463V40.8956H3.63606V44.9682H4.80327C5.31205 44.9682 5.6263 44.9081 5.88069 44.758C6.20492 44.5729 6.39446 44.1977 6.39446 43.7374C6.39446 43.3271 6.23983 42.9819 5.96549 42.7868ZM5.79091 43.7424C5.79091 44.0526 5.66122 44.2677 5.43177 44.3328C5.26217 44.3828 5.02773 44.4078 4.66859 44.4078H4.22964V43.102H4.83818C5.17737 43.102 5.38188 43.137 5.53153 43.2171C5.69613 43.3021 5.79091 43.4922 5.79091 43.7424ZM2.53369 41.1207C2.27432 40.9606 1.97004 40.9006 1.45128 40.9006H0.289062V44.9732H0.887631V43.4122H1.52112C2.06482 43.4122 2.35911 43.3421 2.61849 43.152C2.89284 42.9519 3.04747 42.6067 3.04747 42.1764C3.04747 41.6961 2.86291 41.3109 2.53868 41.1207H2.53369ZM2.43892 42.1714C2.43892 42.4366 2.34415 42.6417 2.17455 42.7318C2.03489 42.8118 1.83038 42.8468 1.4862 42.8468H0.887631V41.461H1.32658C1.69071 41.461 1.92515 41.486 2.08477 41.541C2.31422 41.6161 2.44391 41.8462 2.44391 42.1714H2.43892ZM6.67878 40.9006H7.27735V44.9732H6.67878V40.9006ZM60.5549 40.9006H61.1036V44.9732H60.5051V41.9212L58.3752 44.9732H57.8265V40.9006H58.425V43.9575L60.5549 40.9006ZM46.7579 41.1207C46.4986 40.9606 46.1943 40.9006 45.6755 40.9006H44.5083V44.9732H45.1069V43.4122H45.7404C46.2841 43.4122 46.5834 43.3421 46.8377 43.152C47.1121 42.9519 47.2667 42.6067 47.2667 42.1764C47.2667 41.6961 47.0822 41.3109 46.7579 41.1207ZM46.6632 42.1714C46.6632 42.4366 46.5684 42.6417 46.3988 42.7318C46.2591 42.8118 46.0546 42.8468 45.7154 42.8468H45.1069V41.461H45.5458C45.91 41.461 46.1444 41.486 46.304 41.541C46.5335 41.6161 46.6632 41.8412 46.6632 42.1714ZM49.8555 40.8306C48.6584 40.8306 47.6907 41.7762 47.6907 42.9369C47.6907 44.0976 48.6534 45.0382 49.8306 45.0382C51.0078 45.0382 51.9655 44.0976 51.9655 42.9369C51.9655 41.7762 50.9978 40.8306 49.8555 40.8306ZM51.3619 42.9419C51.3619 43.7724 50.6586 44.4678 49.8306 44.4678C49.0026 44.4678 48.2893 43.7774 48.2893 42.9319C48.2893 42.0863 48.9826 41.3959 49.8057 41.3959C50.6287 41.3959 51.3619 42.0864 51.3619 42.9369V42.9419ZM41.6651 40.8956H44.0245V41.461H43.1466V44.9682H42.548V41.461H41.6701V40.8956H41.6651ZM63.9468 40.8956V41.461H63.0689V44.9682H62.4704V41.461H61.5925V40.8956H63.9518H63.9468ZM56.7341 44.4078H57.2379V45.6836H56.774L56.6293 44.9732H52.6489V40.9006H53.2474V44.4128H54.3947V40.9006H54.9932V44.4128H56.1405V40.9006H56.7391V44.4128L56.7341 44.4078ZM35.43 40.8956H37.7445V41.461H36.0236V42.6317H37.6846V43.192H36.0236V44.4028H37.7445V44.9682H35.43V40.8956ZM30.831 42.9469C30.831 44.1376 29.9182 45.0382 28.7061 45.0382C27.8831 45.0382 27.2596 44.658 26.8555 43.9025L26.7707 43.7474H27.4292L27.4591 43.7874C27.8132 44.2527 28.2123 44.4728 28.7111 44.4728C29.4543 44.4728 30.0928 43.9125 30.2125 43.182H27.7833V42.6167H30.2025C30.0629 41.8962 29.4693 41.4009 28.7161 41.4009C28.1674 41.4009 27.7634 41.6161 27.484 42.0663L27.4541 42.1164H26.8007L26.8655 41.9663C27.1798 41.2658 27.8931 40.8306 28.731 40.8306C29.9282 40.8306 30.831 41.7411 30.831 42.9469ZM33.2353 40.8956L34.9811 44.9682H34.3327L32.951 41.7111L31.5693 44.9682H30.9208L32.6666 40.8956H33.2353ZM24.8803 42.9169L26.8855 44.9682H26.0674L24.4762 43.3271V44.9682H23.8777V40.8956H24.4762V42.5166L26.0824 40.8956H26.8904L24.8852 42.9169H24.8803ZM41.5005 40.8956L39.4953 42.9169L41.5005 44.9682H40.6825L39.0913 43.3271V44.9682H38.4927V40.8956H39.0913V42.5166L40.6974 40.8956H41.5055H41.5005Z" fill="#1D1D1B"/>
<path d="M68.9996 29.3033H66.0117V32.3002H68.9996V29.3033Z" fill="#B42323"/>
<path d="M68.9996 24.2251H66.0117V27.222H68.9996V24.2251Z" fill="#B42323"/>
<path d="M68.9996 19.142H66.0117V22.1388H68.9996V19.142Z" fill="#B42323"/>
<path d="M69 47.1995H0V48H69V47.1995Z" fill="url(#paint1_linear_906_3574)"/>
</g>
<defs>
<linearGradient id="paint0_linear_906_3574" x1="7.07324" y1="18.9418" x2="42.9175" y2="18.9418" gradientUnits="userSpaceOnUse">
<stop offset="0.31" stop-color="#264990"/>
<stop offset="0.5" stop-color="#0068A8"/>
<stop offset="0.67" stop-color="#006AA9"/>
<stop offset="0.81" stop-color="#0082BC"/>
<stop offset="1" stop-color="#264990"/>
</linearGradient>
<linearGradient id="paint1_linear_906_3574" x1="0" y1="47.5997" x2="69" y2="47.5997" gradientUnits="userSpaceOnUse">
<stop offset="0.31" stop-color="#264990"/>
<stop offset="0.5" stop-color="#0068A8"/>
<stop offset="0.67" stop-color="#006AA9"/>
<stop offset="0.81" stop-color="#0082BC"/>
<stop offset="1" stop-color="#264990"/>
</linearGradient>
<clipPath id="clip0_906_3574">
<rect width="69" height="48" fill="white"/>
</clipPath>
</defs>
</svg>
