<svg width="1530" height="857" viewBox="0 0 1530 857" fill="none" xmlns="http://www.w3.org/2000/svg">
<g clip-path="url(#clip0_443_6245)">
<path d="M1504.62 452.904C1504.03 452.439 1504.04 451.135 1503.88 450.199C1501.92 438.543 1499.99 426.881 1498.01 415.232C1497.84 414.181 1497.74 412.829 1497.07 412.201C1492.96 408.368 1488.4 404.976 1484.63 400.853C1482.82 398.873 1481.25 395.445 1481.64 392.994C1482.04 390.411 1480.74 386.197 1485.29 385.038C1486.26 384.791 1487.5 383.131 1487.46 382.171C1487.42 381.139 1486.21 379.805 1485.16 379.244C1482.23 377.668 1479.04 376.576 1476.09 375.012C1467.9 370.672 1466.99 357.501 1474.38 352.117C1475.6 351.23 1477.24 350.022 1477.43 348.779C1477.99 345.048 1472.1 339.399 1468.24 339.906C1458.71 341.155 1450.13 332.885 1449.86 324.706C1453.27 323.312 1456.33 321.073 1454.93 316.914C1453.38 312.29 1448.79 311.107 1443.46 313.268C1440.15 314.62 1433.76 310.865 1431.9 307.364C1429.77 303.356 1426.82 299.783 1423.58 295.087C1421.09 300.586 1419.35 304.413 1417.52 308.445C1414.18 308.234 1405.61 302.101 1405.6 298.6C1405.59 291.079 1400.92 286.72 1396.14 282.097C1389.19 275.354 1389.4 271.829 1396.65 265.395C1398.04 264.163 1399.21 262.684 1400.48 261.32C1399.93 261.387 1399.38 261.453 1398.83 261.525C1397.32 258.368 1395.81 255.217 1394.3 252.061C1394.71 251.819 1395.12 251.578 1395.53 251.336C1398.07 252.501 1400.61 253.66 1403.16 254.825C1403.53 254.547 1403.9 254.27 1404.28 253.992C1403.58 251.493 1402.76 249.024 1402.21 246.489C1401.54 243.326 1400.96 240.127 1400.59 236.91C1400.4 235.213 1401.01 233.421 1400.77 231.743C1400.38 228.978 1405.83 217.666 1408.45 216.749C1409.73 216.302 1411.53 215.885 1412.57 216.441C1417.29 218.97 1419.07 215.439 1421.93 212.427C1414.08 207.26 1411.88 199.89 1412.55 191.276C1412.63 190.31 1412.02 189.024 1411.3 188.3C1403.11 179.976 1402.8 168.64 1401.3 158.403C1399.82 148.346 1397.83 138.851 1393.77 130.733C1397.59 126.93 1401.53 123.423 1404.85 119.409C1405.73 118.346 1405.28 115.419 1404.45 113.885C1402.91 111.03 1400.64 108.562 1398.72 106.002C1392.19 107.626 1385.76 109.226 1379.09 110.885C1377.25 108.205 1365.8 107.934 1363.5 111.199C1361.7 113.759 1359.75 115.328 1355.6 113.97C1361.61 108.308 1359.77 102.163 1357.85 95.976C1355.94 89.8432 1346.7 82.8714 1341.05 83.3966C1335.66 83.8915 1334.67 82.7024 1335.87 77.4509C1339.23 77.0042 1342.52 76.642 1345.79 76.1108C1347.41 75.8513 1349.26 75.6883 1350.53 74.7949C1354.1 72.2658 1352.9 68.3603 1352.47 64.9982C1351.82 59.9217 1354.11 57.2296 1358.98 58.0686C1365.49 59.1913 1366.56 58.3825 1370.12 52.7326C1371.72 50.1793 1374.28 47.1853 1376.92 46.5756C1380.19 45.8151 1381.05 44.2336 1382.47 41.7044C1385.51 36.308 1382.79 31.7748 1381.61 26.5595C1379.91 28.0867 1378.55 29.3 1378.26 29.5656C1375.07 27.0304 1372.36 24.7849 1369.55 22.6782C1368.83 22.141 1367.65 21.5736 1366.92 21.797C1363.41 22.8593 1362.63 22.7507 1363.41 19.473C1364.6 14.5294 1360.43 12.0847 1359.31 8.28187C1358.51 5.57161 1355.97 3.38046 1353.51 -0.00585938C1351.58 1.19535 1348.82 2.8372 1346.14 4.61185C1343.8 6.16315 1341.34 7.62996 1339.33 9.54947C1334.85 13.8231 1330.01 17.9338 1326.55 22.9499C1324.75 25.5515 1325.57 29.9579 1325.13 34.1772C1328.83 34.8654 1332.95 35.632 1337.85 36.5434C1336 38.1974 1334.75 39.3201 1333.77 40.1893C1328.64 38.4931 1324.06 36.9237 1319.43 35.5233C1318.84 35.3422 1317.92 35.9941 1317.22 36.3744C1310.81 39.8694 1304.38 43.3342 1298.04 46.9559C1297 47.5475 1296.41 48.8996 1295.55 49.8412C1294.48 51.0062 1293.46 52.2557 1292.23 53.2155C1288.35 56.2396 1284.43 59.2275 1280.42 62.0827C1277.05 64.4911 1273.67 66.972 1270.04 68.9398C1260.3 74.2215 1253.95 83.0827 1246.51 90.7849C1245.92 91.3885 1246.18 92.7527 1245.66 93.477C1241.28 99.4951 1241.85 108.441 1234.33 112.642C1233.71 112.986 1233.68 114.308 1233.27 115.129C1232.67 116.324 1232.26 117.875 1231.27 118.576C1227.37 121.334 1227.28 125.052 1227.62 128.517C1231.16 129.978 1234 131.421 1237.01 132.32C1241.2 133.576 1245.7 133.992 1249.73 135.61C1252.39 136.678 1252.12 139.745 1249.68 140.934C1245.53 142.956 1241.06 144.453 1236.59 145.69C1235.08 146.107 1233.18 145.075 1231.18 144.646C1234.41 138.918 1234.15 138.254 1227.29 133.696C1225.49 136.479 1222.62 139.105 1222.21 142.069C1221.78 145.093 1223.28 148.733 1224.85 151.6C1226.75 155.065 1225.47 157.081 1222.94 158.928C1220.43 160.763 1217.91 162.362 1218.42 166.153C1218.51 166.841 1217.22 168.368 1216.51 168.411C1211 168.749 1211.11 172.69 1210.5 176.644C1210.09 179.288 1208.66 181.805 1207.52 184.298C1207.07 185.288 1205.93 185.97 1205.52 186.966C1201.44 196.708 1196.13 197.97 1188.94 190.817C1183.46 185.366 1171.61 186.061 1166.69 192.055C1164.85 194.288 1162.7 196.256 1160.92 198.525C1157.4 203.022 1154.29 207.356 1153.21 213.598C1152.48 217.865 1147.4 221.457 1144.01 225.121C1143.5 225.676 1141.26 225.447 1140.46 224.795C1137.09 222.042 1134.31 223.727 1131.33 225.429C1128.34 227.143 1125.27 228.761 1122.13 230.173C1121.17 230.608 1119.86 230.24 1117.91 230.24C1119.36 228.061 1120.29 226.666 1121.58 224.729C1119.1 223.503 1116.85 221.439 1114.65 221.487C1106.83 221.662 1099.55 229.244 1099.06 237.006C1098.97 238.564 1099.05 240.127 1099.05 242.155C1097.14 241.618 1095.5 241.159 1094.23 240.809C1093.73 238.491 1093.32 236.572 1092.82 234.205C1087 236.529 1081.77 238.533 1076.63 240.749C1075.75 241.129 1074.9 242.282 1074.63 243.248C1073.35 247.733 1069.56 248.614 1065.87 249.827C1063.26 250.684 1060.74 251.855 1057.52 253.147C1060.53 255.803 1062.38 257.439 1064.37 259.195C1063.12 260.596 1061.9 261.411 1061.5 262.515C1060.62 264.954 1059.4 267.682 1059.83 270.006C1060.08 271.328 1063.36 272.016 1065.21 273.115C1067.81 274.66 1070.59 276.036 1072.83 278.01C1074.94 279.869 1073.35 281.716 1071.31 281.36C1065.89 280.419 1064.85 284.789 1061.99 287.614C1063.43 288.634 1064.43 289.334 1065.42 290.04C1051.25 292.093 1050.11 292.141 1049.13 304.099C1046.03 304.099 1042.82 304.425 1039.7 304.008C1036.57 303.586 1033.53 302.415 1030.45 301.576C1030.07 302.028 1029.7 302.475 1029.32 302.928C1031.83 310.648 1034.34 318.368 1036.94 326.348C1034.19 326.203 1032.25 325.485 1031.22 326.155C1027.61 328.503 1025.11 326.59 1022.58 324.513C1020.96 323.191 1019.75 320.976 1017.95 320.348C1011.85 318.217 1010.47 313.841 1010.36 308.016C1010.32 306.254 1008.18 303.616 1006.42 302.988C1001.16 301.111 998.958 298.316 1000.09 292.781C995.342 291.405 990.555 290.016 985.159 288.453C983.807 290.089 981.96 292.334 979.636 295.147C974.336 294.211 968.493 293.179 962.487 292.117C960.948 296.994 959.656 301.467 963.248 306.519C966.664 311.33 965.36 313.473 959.632 315.628C958.902 315.9 958.237 316.389 957.61 316.871C953.658 319.918 949.95 319.763 946.485 316.407C946.262 316.636 945.881 316.841 945.845 317.101C945.495 319.805 944.517 321.568 941.27 321.417C938.113 321.266 937.37 319.914 937.25 316.871C937.165 314.747 935.656 312.863 932.499 313.781C922.883 316.576 912.386 317.391 905.644 326.324C905.565 326.433 905.083 326.24 905.445 326.306C904.159 323.409 903.024 320.837 901.443 317.282C898.829 320.505 897.145 322.576 895.799 324.236C890.511 323.445 885.658 322.714 879.875 321.851C881.004 318.779 881.39 315.302 883.262 313.081C887.964 307.515 891.561 301.775 893.97 294.67C895.413 290.421 894.64 288.374 892.69 285.399C891.797 284.034 891.091 282.23 891.121 280.642C891.187 277.364 887.185 270.242 884.378 270.658C880.98 271.165 880.684 269.095 879.622 267.266C877.286 263.252 869.94 261.211 866.052 262.992C862.34 264.694 858.356 265.817 854.427 266.994C853.739 267.199 852.465 266.662 851.946 266.052C848.952 262.545 845.403 262.582 841.431 263.916C840.598 264.193 839.481 263.644 837.73 263.342C839.33 261.549 841.171 260.427 841.238 259.213C841.376 256.696 840.755 251.976 840.133 251.922C835.745 251.553 831.688 247.624 826.69 253.171C819.942 260.662 815.916 270.163 819.411 279.803C815.487 280.642 811.654 281.463 807.368 282.38C808.129 284.161 808.877 285.93 809.668 287.777C805.974 289.624 802.37 291.423 798.767 293.228C798.459 292.781 798.157 292.328 797.849 291.881C798.223 290.578 798.592 289.28 799.213 287.107C792.073 289.564 785.535 291.592 779.215 294.163C777.821 294.731 777.205 297.217 776.227 298.817C776.602 299.246 776.976 299.68 777.35 300.109C772.986 301.395 768.465 302.324 764.294 304.069C760.358 305.716 755.662 307.395 753.338 310.558C750.628 314.234 748.328 315.465 744.326 313.859C743.626 318.954 742.98 323.656 742.25 328.986C740.964 330.097 739.455 330.737 738.067 327.725C737.638 326.795 735.815 326.499 734.632 325.914C734.391 327.326 733.449 329.234 734.034 330.055C736.05 332.892 738.465 335.499 741.024 337.877C741.948 338.735 743.716 338.686 745.099 339.055C744.465 339.996 743.831 340.938 743.191 341.885C736.781 342.851 730.401 344.167 723.96 344.662C719.354 345.018 714.664 344.077 710.01 344.052C702.875 344.01 699.912 348.061 701.686 354.833C702.151 356.608 702.682 358.648 702.254 360.326C700.111 368.747 701.04 371.004 707.825 377.016C709.841 378.803 710.505 382.135 711.64 384.815C711.712 384.99 710.282 386.215 709.98 386.071C707.789 385.002 705.549 383.898 703.666 382.376C702.978 381.821 703.213 380.125 703.026 378.948C702.845 377.813 703.062 376.038 702.423 375.64C697.847 372.773 693.097 370.189 687.724 367.135C687.036 366.326 685.123 363.042 684.314 363.296C680.777 364.407 677.56 366.537 673.902 368.469C678.505 373.032 680.636 376.276 680.294 378.199C675.904 375.439 672.26 374.477 669.362 375.314C669.9 368.759 670.425 362.306 670.962 355.69C669.181 355.401 667.654 355.153 665.584 354.815C668.783 350.801 666.326 349.256 662.753 347.898C662.246 349.533 660.978 352.34 661.352 352.582C665.813 355.431 662.65 360 664.026 363.549C665.33 366.9 661.545 371.185 657.803 372.097C656.348 372.453 654.893 373.346 653.747 374.354C650.403 377.3 647.221 380.427 642.887 384.501C643.087 381.725 642.471 379.044 643.491 378.055C648.115 373.564 651.441 368.632 651.803 362.004C651.948 359.318 652.557 356.632 652.491 353.958C652.401 350.433 650.24 349.226 646.763 349.093C645.338 349.038 643.986 347.252 641.662 345.574C644.674 344.668 646.666 344.071 649.817 343.123C647.656 339.163 645.682 335.553 643.708 331.938C640.002 334.425 636.398 336.278 635.994 340.956C635.934 341.632 634.455 342.393 633.501 342.755C629.783 344.143 627.38 346.606 626.052 350.397C624.887 353.723 623.843 357.35 621.724 360.03C618.435 364.189 614.891 369.03 610.334 371.077C604.636 373.63 601.401 376.938 600.199 382.932C601.141 383.68 602.209 384.531 603.356 385.443C602.475 387.393 601.521 389.071 600.948 390.869C600.362 392.692 600.32 394.69 599.716 396.513C599.348 397.624 598.582 398.801 597.652 399.495C592.099 403.636 591.966 406.407 597.145 411.097C598.159 412.014 599.348 413.191 599.59 414.417C600.447 418.751 600.924 423.157 601.672 428.409C600.779 430.376 599.348 433.545 597.405 437.843C595.986 435.067 595.201 433.72 594.586 432.296C593.288 429.296 592.66 425.807 590.728 423.308C583.292 413.692 575.203 404.572 567.857 394.89C563.753 389.469 558.724 386.614 553.244 386.203C551.638 379.805 550.153 373.871 548.608 367.702C545.771 368.795 543.845 369.272 542.233 370.262C541.219 370.883 539.994 372.314 540.042 373.328C540.32 379.521 542.421 384.918 546.918 387.924C546.918 390.99 547.044 393.435 546.881 395.861C546.749 397.859 546.966 400.835 545.813 401.638C541.986 404.3 537.616 406.183 533.451 408.362C533.161 408.085 532.865 407.801 532.576 407.523C533.396 406.395 534.501 405.368 534.966 404.113C535.72 402.085 536.91 399.64 536.36 397.847C535.539 395.173 532.956 395.65 530.342 396.163C524.62 397.286 518.366 400.437 513.749 393.556C513.223 392.777 511.787 392.608 510.767 392.155C506.402 390.217 502.751 392.692 498.785 393.779C497.294 394.189 495.254 392.59 493.467 391.902C494.783 390.224 495.984 388.437 497.469 386.928C497.97 386.415 499.177 386.596 500.052 386.463C498.646 375.857 497.855 376.425 488.813 378.881C485.777 379.708 483.314 380.674 479.602 379.95C470.904 378.254 461.849 378.224 452.928 377.976C449.493 377.879 445.98 378.863 442.606 379.739C441.495 380.028 440.722 381.549 439.769 382.485C438.308 383.922 436.497 386.747 435.417 386.493C432 385.696 427.914 384.507 425.891 382.008C424.068 379.751 424.286 375.574 424.31 372.242C424.322 370.853 425.885 369.024 427.231 368.179C432.169 365.077 435.151 369.145 438.338 371.801C444.229 367.328 446.004 358.678 442.026 352.805C439.696 349.364 436.34 346.582 434.24 343.032C432.217 339.616 429.972 339.26 426.694 340.443C426.634 341.421 426.284 342.35 426.58 342.99C430.352 351.242 423.211 355.551 419.143 359.608C415.527 363.205 413.318 366.163 412.92 371.149C412.6 375.151 410.209 378.109 406.062 379.491C401.97 380.855 400.642 378.067 398.541 375.574C396.616 373.292 393.869 370.413 391.316 370.238C386.65 369.912 382.382 371.892 377.058 369.731C373.032 368.095 367.141 371.046 362.656 371.855C360.893 376.883 359.125 381.912 357.175 387.471C355.992 387.145 353.692 387.23 352.835 386.161C346.636 378.393 343.099 369.525 343.889 357.881C340.207 359.391 337.533 359.904 335.62 361.401C332.252 364.032 331.262 372.169 333.646 375.809C335.668 378.894 334.895 381.29 332.39 383.409C329.572 385.799 328.075 383.209 326.427 381.586C324.73 379.92 323.125 378.151 321.278 376.22C325.268 372.562 323.457 368.789 322.443 364.89C321.936 362.922 321.924 360.574 322.497 358.636C323.276 355.986 325.268 353.68 325.95 351.024C326.964 347.046 329.046 344.56 332.916 343.189C337.986 341.397 342.175 333.048 341.233 327.888C340.642 324.646 340.751 321.278 340.539 317.964C341.095 317.843 341.65 317.723 342.205 317.602C342.875 318.58 344.028 319.503 344.131 320.535C345.302 332.276 355.322 340.479 356.698 352.117C356.747 352.527 357.242 352.896 357.543 353.27C364.256 361.751 379.618 366.115 389.602 362.372C390.042 362.209 390.531 361.956 390.797 361.594C394.34 356.704 398.759 352.183 401.07 346.763C402.809 342.694 403.376 336.749 401.614 332.97C399.924 329.348 397.853 326.264 398.028 322.069C398.215 317.632 398.692 313.087 397.986 308.765C397.286 304.515 395.433 300.405 393.761 296.372C392.258 292.751 390.374 289.286 388.551 285.809C387.417 283.648 386.553 280.956 384.743 279.628C381.193 277.02 381.712 273.894 381.893 269.964C384.495 271.467 386.578 272.662 388.72 273.9C388.159 270.211 388.576 266.421 386.928 264.091C385.473 262.026 381.712 261.586 378.513 260.24V256.334C376.618 257.481 375.139 258.374 374.541 258.737C368.904 257.173 364.093 255.712 359.209 254.578C358.129 254.324 356.728 255.073 355.582 255.592C352.944 256.799 350.487 258.507 347.759 259.37C341.553 261.32 339.561 265.129 340.032 271.63C340.666 280.376 338.541 282.097 329.97 282.121C324.332 282.139 318.489 286.757 316.57 291.906C314.354 297.857 311.572 303.592 309.036 309.423C308.704 309.079 308.372 308.729 308.046 308.384C306.091 308.928 303.984 309.175 302.215 310.081C298.992 311.735 295.889 313.666 292.902 315.725C292.062 316.304 291.392 317.692 291.344 318.743C291.223 321.495 291.549 324.199 288.073 325.395C287.469 325.6 287.113 327.332 287.113 328.358C287.125 333.374 284.27 335.439 279.743 335.131C275.789 334.865 274.757 336.773 274.479 340.171C274.062 345.272 273.525 350.378 272.71 355.425C272.505 356.686 271.238 358.455 270.115 358.775C266.306 359.861 262.352 360.99 258.435 361.057C243.918 361.316 229.394 361.153 214.871 361.171C213.217 361.171 211.557 361.316 209.215 361.419C210.26 362.807 210.652 363.525 211.219 364.05C213.483 366.139 215.034 367.974 214.038 371.753C213.133 375.193 212.825 379.334 216.966 382.141C218.191 382.974 218.034 385.841 218.336 387.073C213.646 383.391 209.077 379.69 204.386 376.159C201.598 374.059 199.183 374.324 197.101 377.517C196.485 378.459 194.698 378.755 193.376 379.087C191.891 379.461 190.316 379.479 188.807 379.781C186.694 380.197 184.576 380.644 182.505 381.242C181.328 381.58 179.596 381.954 179.221 382.799C177.127 387.537 169.865 387.489 169.298 393.688C169.244 394.268 166.871 394.769 165.525 395.071C162.066 395.843 159.899 397.485 159.199 401.33C158.867 403.141 157.099 404.994 155.499 406.183C153.936 407.348 151.757 407.698 149.541 408.519C152.39 413.276 149.849 416.584 146.825 419.282C143.3 422.427 142.612 426.115 145.075 429.537C147.996 433.6 149.107 437.3 145.757 441.628C147.278 442.292 148.123 442.708 149.004 443.04C156.036 445.684 157.123 450.942 151.648 456.181C149.077 458.638 145.485 460.503 143.952 463.461C141.32 468.537 139.902 474.242 138.06 479.716C137.396 481.696 136.974 483.755 136.298 486.344C139.509 488.741 139.062 492.362 137.342 496.147C135.93 499.256 132.151 499.865 129.966 497.24C129.054 496.141 128.71 494.475 127.666 493.6C126.495 492.616 124.696 491.535 123.398 491.771C121.956 492.03 120.628 493.594 119.511 494.825C118.135 496.352 117.091 498.181 115.787 499.787C113.964 502.032 111.9 504.091 110.191 506.409C107.638 509.867 110.614 512.215 112.491 514.316C113.547 515.493 115.823 515.584 117.549 516.163C119.777 516.61 121.503 518.837 123.604 519.278C127.437 520.081 129.048 522.863 129.133 525.676C129.236 529.008 128.415 532.883 126.61 535.612C124.624 538.612 121.056 540.562 118.201 542.952C118.974 544.256 119.234 544.841 119.626 545.336C124.491 551.523 125.632 557.608 119.735 563.976C118.908 564.869 118.877 567.815 119.686 568.69C123.737 573.067 124.902 579.676 130.811 582.622C135.06 584.741 136.032 588.356 135.737 592.588C134.511 593.825 133.075 594.912 131.626 595.799C127.588 598.262 122.94 600.139 120.169 603.978C118.871 605.777 118.032 607.962 116.312 609.362C112.992 612.073 108.103 610.769 103.847 611.264C98.8311 611.849 94.5695 615.036 90.0967 617.391C88.2194 618.38 86.1611 619.25 84.0484 619.051C77.7285 618.447 75.8814 609.592 70.2677 606.628C63.8633 603.248 54.3743 608.427 49.4488 603.121C47.5715 601.093 47.0766 598.063 45.157 596.071C42.5434 593.354 37.9619 593.451 34.6782 595.298C31.3884 597.145 29.1128 600.338 27.0061 603.465C25.5876 605.572 24.1812 607.745 23.0403 610.014C18.8814 607.883 13.9558 608.071 9.50111 606.906C8.13089 606.549 5.62586 606.996 5.08864 607.914C4.46691 608.97 4.93773 611.378 5.82505 612.489C11.1128 619.093 10.5092 624.109 3.36831 628.733C0.615799 630.513 -0.718205 632.505 0.289843 635.928C2.02224 641.807 5.42666 643.805 11.1973 641.451C15.3925 639.737 18.1993 640.582 21.4709 643.793C23.7466 646.02 27.477 647.215 30.7546 647.837C33.6339 648.38 35.4448 649.183 37.4126 651.574C39.5917 654.217 42.9719 656.391 46.2556 657.411C48.0544 657.966 51.0182 656.077 52.8411 654.549C53.4689 654.024 52.7385 650.795 51.7063 649.624C50.0222 647.722 47.7647 646.044 45.4166 645.079C39.5192 642.652 38.155 640.37 39.9538 634.497C40.2798 633.441 40.5756 632.372 40.8472 631.431C40.8049 631.225 40.7627 631.026 40.7204 630.827C44.0947 630.38 47.4387 629.71 50.7164 628.811C54.0424 627.9 57.8874 626.837 60.6943 628.847C63.9116 631.153 63.8814 636.278 66.984 638.729C70.4186 641.433 75.3502 639.423 79.7144 639.224C84.1148 639.018 88.5635 640.95 91.4307 644.294C92.2697 645.272 92.9639 646.352 93.6098 647.463C93.0544 647.324 92.4991 647.185 91.9498 647.046C90.3381 646.654 87.7607 645.7 87.2416 646.334C86.2154 647.584 86.0645 649.751 86.0222 651.549C85.98 653.288 86.5353 655.038 86.8733 657.073C79.6299 656.101 73.4971 656.27 68.6862 661.914C67.3703 660.67 66.2234 659.572 65.0524 658.491C61.9739 655.648 57.1812 656.366 56.7104 660.29C56.1852 664.642 57.1812 669.242 57.9236 673.666C58.4005 676.503 59.6319 679.219 60.4951 681.996C60.8633 683.197 61.1832 684.411 61.4729 685.636C62.644 690.549 64.0685 695.433 64.8532 700.407C65.3784 703.714 64.6359 707.215 65.1369 710.529C65.4327 712.491 66.7426 714.525 68.1128 716.059C71.0826 719.384 74.7888 722.113 77.4689 725.638C81.8814 731.445 82.823 739.545 90.8331 743.167C93.8331 744.525 95.6862 749.276 97.2013 752.843C99.1872 757.527 100.231 762.604 101.91 767.433C102.29 768.519 103.509 769.461 104.559 770.137C108.453 772.666 112.473 774.996 116.378 777.507C120.356 780.067 121.57 785.107 119.982 789.29C119.409 790.799 119.922 793.057 120.634 794.668C122.722 799.37 125.511 803.777 127.352 808.564C128.952 812.723 129.598 817.244 130.714 821.59C131.885 826.129 134.566 827.541 139.316 826.69C141.537 826.292 144.109 827.197 146.125 826.443C148.962 825.38 153.242 823.721 153.7 821.62C154.793 816.604 154.805 811.02 153.791 805.956C152.227 798.157 154.129 792.006 158.934 785.861C164.125 779.228 168.604 772.087 162.217 763.322C160.521 760.992 162.537 759.857 165.181 759.525C170.801 758.819 176.704 758.704 180.652 753.417C181.817 751.853 183.749 750.857 185.572 749.403C193.002 755.457 201.519 754.292 209.964 752.964C214.189 752.3 214.787 750.127 212.36 746.632C211.123 744.845 210.254 742.805 209.215 740.873C214.66 742.473 217.557 741.61 217.195 737.686C216.296 727.92 220.817 716.445 209.36 709.57C209.137 709.437 209.083 709.008 208.95 708.718C209.421 708.718 209.885 708.718 210.356 708.718C210.356 705.242 211.557 701.125 210.121 698.403C206.553 691.648 207.694 689.016 215.674 687.483C217.932 687.049 220.841 685.105 221.656 683.119C223.443 678.785 225.58 675.773 230.535 674.988C232.413 674.692 234.079 673.038 235.823 671.976C237.175 671.149 238.497 670.268 239.831 669.405C240.091 670.98 240.664 672.58 240.561 674.137C240.121 680.795 242.487 684.163 248.083 684.827C250.382 685.099 251.523 684.724 252.145 682.147C253.256 677.535 255.96 674.662 261.356 675.018C263.39 675.151 266.131 674.644 267.441 673.328C269.759 671.01 271.66 671.469 274.346 672.163C276.936 672.833 280.129 673.28 282.489 672.362C291.574 668.843 291.489 668.632 293.167 678.193C293.215 678.459 293.553 678.676 293.982 679.189C295.841 679.189 297.918 679.111 299.994 679.219C301.195 679.28 303.181 679.286 303.453 679.908C305.463 684.531 309.712 686.457 313.479 689.077C314.626 689.873 315.229 691.678 315.724 693.139C316.853 696.477 317.988 699.839 318.682 703.286C319.075 705.23 318.435 707.36 318.543 709.388C318.646 711.302 319.123 713.203 319.437 715.105C321.066 714.477 322.72 713.898 324.314 713.197C324.833 712.968 325.219 712.437 326.01 711.737C327.085 713.022 328.099 714.012 328.847 715.177C332.529 720.888 335.469 722.433 341.632 719.421C347.095 716.753 350.771 719.149 353.33 722.644C355.757 725.952 357.688 726.332 361.231 725.294C363.767 724.551 367.751 724.479 367.805 728.052C367.871 732.429 370.358 735.151 372.308 738.35C376.485 745.207 379.491 746.065 386.27 742.479C392.36 753.073 404.541 749.65 408.501 742.425C409.177 741.187 409.739 739.087 409.153 738.103C406.895 734.318 404.276 730.727 401.541 727.268C399.658 724.889 398.523 722.747 400.811 720.139C409.201 721.407 410.934 719.372 410.596 708.755C413.728 707.24 416.704 706.352 419.879 709.105C424.038 712.708 426.628 712.123 430.002 707.022C427.751 704.65 425.439 702.224 423.543 700.226C423.833 697.926 424.038 696.157 424.274 694.395C424.497 692.741 424.195 690.332 425.137 689.65C426.157 688.908 428.722 689.209 429.966 690.03C434.565 693.079 439.201 694.57 444.96 694.775C453.326 695.071 461.614 697.334 469.98 698.397C472.026 698.656 474.229 697.352 476.402 697.026C478.413 696.731 480.501 696.562 482.517 696.731C486.417 697.057 490.292 697.696 494.185 698.131C495.743 698.306 497.378 698.034 498.875 698.391C504.893 699.827 510.543 699.767 515.885 695.946C517.165 695.034 519.507 695.131 521.24 695.439C524.016 695.934 527.095 696.417 529.322 697.95C532.769 700.328 535.992 702.803 540.272 703.491C540.773 703.57 541.467 704.795 541.443 705.465C541.286 709.081 541.726 713.028 540.386 716.203C539.3 718.781 537.742 721.455 539.922 723.036C542.01 724.551 545.584 725.209 548.131 724.624C551.578 723.833 552.688 724.135 552.193 727.745C551.686 731.457 554.107 733.606 557.65 733.244C560.759 732.924 563.928 733.177 567.066 733.177L567.139 734.668C566.052 735.272 564.441 735.61 563.988 736.521C562.775 738.96 562.062 741.652 561.145 744.242C563.3 744.507 565.449 744.755 567.604 745.032C569.028 745.219 570.465 745.37 571.865 745.684C572.753 745.883 573.791 746.861 574.401 746.614C578.837 744.809 583.105 742.588 587.571 740.879C593.185 738.731 598.932 736.938 604.636 735.03C604.775 734.982 605.077 735.435 605.843 736.171C604.763 737.185 603.863 738.399 602.662 739.087C598.805 741.296 598.883 743.849 602.511 746.584C604.859 748.352 606.724 750.797 608.65 753.073C610.195 754.896 611.24 757.207 612.966 758.801C617.318 762.833 618.64 767.946 619.026 773.523C619.159 775.437 618.948 777.489 619.582 779.234C622.437 787.087 625.533 794.849 628.545 802.642C629.584 805.334 630.755 807.984 631.642 810.724C632.686 813.96 635.058 814.606 637.66 813.477C639.362 812.735 640.563 810.851 642.012 809.499C642.906 808.672 643.841 807.893 644.765 807.091C645.507 808.02 646.346 808.896 646.974 809.904C648.042 811.612 648.96 813.411 649.974 815.155C652.02 818.662 655.829 817.437 658.708 818.572C663.018 820.268 666.133 819.531 669.893 817.37C671.602 816.386 674.529 817.105 676.769 817.618C678.411 817.992 680.083 819.048 681.302 820.244C683.107 822.024 684.598 824.149 686.07 826.238C686.698 827.125 686.674 828.519 687.38 829.298C691.461 833.819 696.429 837.634 697.938 844.069C698.131 844.889 699.942 845.445 701.095 845.91C707.366 848.445 713.65 849.906 719.741 845.101C721.298 847.902 722.493 850.159 723.791 852.356C726 856.087 732 858.537 734.771 855.676C740.578 849.67 750.097 853.388 755.372 846.773C756.803 844.974 758.976 843.755 760.841 842.312C761.565 841.757 762.374 841.31 763.165 840.839C765.042 839.722 766.986 838.714 768.791 837.495C771.453 835.702 774.073 832.141 776.614 832.219C782.795 832.425 786.447 827.801 790.6 825.296C795.821 822.151 798.163 823.66 801.718 826.588C802.757 827.445 805.026 827.716 806.306 827.203C810.857 825.374 814.159 826.678 817.648 829.847C820.883 832.787 824.565 835.902 828.604 837.133C833.976 838.781 839.885 838.642 845.56 839.336C852.887 840.236 860.378 841.986 865.702 834.465C866.318 833.596 867.513 833.143 868.437 832.497C872.421 829.696 872.451 825.477 870.024 821.324C867.706 817.358 866.632 812.65 865.201 808.213C864.96 807.465 865.473 806.3 865.944 805.515C867.851 802.364 869.71 799.153 871.92 796.214C874.207 793.171 876.525 789.423 881.107 793.636C881.891 794.354 883.545 794.378 884.777 794.312C888.61 794.095 892.002 794.505 894.809 797.729C895.582 798.622 898.062 798.525 899.602 798.181C910.141 795.815 915.489 798.568 920.819 808.25C922.473 811.256 925.425 814.304 928.509 815.62C938.753 820.002 948.447 818.101 957.32 811.407C958.757 810.326 960.664 809.584 962.451 809.312C970.141 808.129 977.638 809.216 985.237 810.851C991.316 812.161 998.336 810.525 1001.73 817.938C1001.93 818.366 1002.85 818.626 1003.45 818.68C1007.19 818.994 1010.96 819.598 1014.68 819.417C1027.12 818.813 1040.16 820.002 1049.18 808.358C1050.31 806.892 1053.13 806.843 1054.71 805.576C1058.9 802.213 1063.2 798.857 1066.77 794.892C1069.91 791.421 1071.81 786.857 1074.82 783.254C1078.14 779.282 1082.48 778.105 1087.22 781.226C1089.94 783.012 1092.51 783.23 1095.19 781.075C1100.04 777.175 1105.38 776.873 1111.48 777.809C1122.23 779.457 1128.51 775.612 1133.35 765.996C1133.96 764.789 1134.91 763.135 1135.97 762.887C1141.81 761.56 1140.65 755.68 1139.23 754.129C1133.9 748.274 1135.2 742.322 1136.64 735.833C1137.82 730.533 1138 725.01 1139.29 719.747C1141.3 711.61 1133.98 702.471 1125.77 704.463C1128.05 697.877 1128.49 691.002 1135.38 687.254C1138.31 685.66 1141.1 683.596 1143.47 681.248C1150.03 674.759 1158.31 673.908 1166.81 673.431C1169.08 673.304 1171.41 673.093 1173.56 672.435C1181.88 669.881 1192.64 670.914 1198.15 679.654C1198.72 680.56 1199.51 681.531 1200.43 681.984C1206.57 684.984 1212.03 688.612 1215.01 695.143C1215.45 696.103 1216.91 696.881 1218.05 697.177C1225.07 699.03 1229.31 704.578 1233.34 709.714C1238.09 715.781 1241.55 718.026 1248.52 714.755C1253.4 712.467 1258.05 710.433 1263.51 710.891C1266.16 711.115 1268.82 711.308 1271.47 711.501C1273.82 711.676 1276.38 712.497 1278.5 711.869C1283.54 710.366 1289.81 713.469 1290.06 718.745C1290.37 725.445 1296.36 724.817 1299.95 726.996C1303.1 728.91 1305.15 726.411 1306.42 723.356C1306.77 722.541 1308.24 722.203 1309.18 721.636C1312.06 719.885 1315.1 718.328 1317.75 716.27C1318.96 715.334 1320.27 713.173 1319.98 711.93C1319.08 708.127 1320.57 705.453 1322.71 702.67C1324.27 700.642 1326.02 698.463 1326.63 696.079C1327.79 691.564 1330.9 690.061 1334.7 689.101C1336.53 691.195 1338.07 693.266 1339.91 695.028C1342.93 697.926 1343.6 700.727 1340.87 704.318C1340.18 705.223 1340.61 707.397 1341.15 708.731C1342.14 711.169 1343.82 713.33 1344.82 715.769C1346.7 720.393 1348.99 725.01 1349.8 729.851C1350.56 734.366 1354.2 738.616 1351.55 743.71C1351.09 744.592 1352.09 746.421 1352.74 747.64C1355.32 752.487 1353.22 756.048 1347.7 756.042C1343.05 756.042 1340.49 759.067 1338.41 762.64C1336.94 765.169 1335.95 768.012 1334.27 770.372C1331.87 773.723 1332.49 776.747 1335.93 779.016C1338.29 780.574 1340.35 782.698 1342.2 784.877C1344.85 788.028 1346.97 791.65 1349.71 794.729C1353.9 799.437 1354.74 804.018 1352.15 809.765C1351.17 811.944 1350.09 814.322 1350.08 816.616C1350.08 817.962 1351.87 820.062 1353.24 820.455C1354.69 820.865 1357.88 819.978 1358.11 819.097C1359.42 813.96 1360.09 808.654 1360.94 803.403C1361.14 802.183 1361.2 800.94 1361.23 800.656C1363.95 799.527 1365.96 798.694 1369.01 797.427C1372.35 799.159 1372.29 799.044 1376.37 796.938C1378.92 795.616 1381.76 794.855 1384.33 793.558C1386.04 792.7 1388.03 791.68 1388.95 790.159C1391.95 785.215 1394.66 780.079 1397.17 774.869C1398.25 772.642 1399.12 770.052 1399.12 767.626C1399.14 759.592 1398.29 751.545 1398.57 743.529C1398.97 732.32 1400.27 721.141 1400.84 709.938C1401.43 698.378 1398.64 687.308 1395.27 676.346C1394.5 673.829 1394.57 671.058 1394.18 668.415C1393.79 665.741 1393.21 663.091 1392.9 660.411C1392.51 657.115 1391.96 653.777 1392.12 650.487C1392.45 643.527 1394.42 636.374 1387.85 630.857C1386.57 629.777 1385.84 627.954 1385.05 626.378C1380.24 616.733 1373.92 608.234 1366.54 600.362C1359.64 593.004 1356.87 583.998 1357.7 573.175C1364.16 575.535 1370.69 576.429 1375.17 581.469C1379.74 586.624 1384.04 592.044 1388.26 597.501C1393.07 603.706 1397.61 610.111 1402.36 616.352C1403.47 617.807 1404.74 619.521 1406.33 620.161C1411.84 622.37 1415.97 625.763 1418.41 631.298C1419.3 633.302 1420.9 635.034 1422.36 636.743C1425.4 640.322 1429.95 642.827 1430.25 648.344C1430.29 649.111 1431.34 649.877 1432.03 650.541C1434.91 653.354 1437.68 656.306 1440.79 658.829C1441.96 659.771 1443.95 659.692 1445.57 660.079C1445.96 658.286 1447.03 656.288 1446.57 654.749C1445.96 652.72 1444.12 651.067 1442.84 649.232C1440.18 645.417 1441.23 642.32 1445.68 641.771C1448.54 641.415 1451.49 641.982 1454.4 641.855C1455.36 641.813 1456.3 640.92 1457.25 640.413C1455.55 637.992 1454.12 635.318 1452.08 633.236C1450.47 631.588 1448.36 630.29 1445.66 632.403C1444.76 633.109 1442.37 632.56 1441 631.896C1437.66 630.296 1434.71 627.429 1431.25 626.62C1422.81 624.646 1418.96 621.036 1417.58 612.211C1417.41 611.143 1417.04 609.906 1416.33 609.157C1412.24 604.877 1410.91 600.03 1412.79 594.537C1414.68 593.813 1416.75 593.487 1418.16 592.346C1419.56 591.217 1420.86 589.322 1421.05 587.632C1421.14 586.769 1418.78 585.519 1417.4 584.632C1411.74 580.992 1406.02 577.443 1400.34 573.839C1393.46 569.475 1387.01 564.109 1379.61 561C1372.59 558.055 1368.55 553.002 1365.07 547.105C1363.31 544.129 1361.75 542.101 1358.25 540.531C1353 538.177 1347.53 534.755 1344.13 530.282C1340.79 525.906 1336.85 525.23 1332.28 523.871C1331.31 527.626 1331.3 532.274 1334.55 532.775C1340.28 533.662 1341.21 537.851 1344.14 541.908C1342 541.666 1340.64 541.515 1339.27 541.358C1339.06 542.083 1338.87 542.523 1338.81 542.976C1337.7 552.181 1332.65 555.139 1323.91 551.698C1316.55 548.807 1305.14 551.179 1299.73 556.932C1299.12 557.584 1299.04 559.34 1299.46 560.234C1300.82 563.137 1302.72 565.799 1303.99 568.739C1304.41 569.729 1303.97 571.733 1303.18 572.463C1301.26 574.244 1298.89 575.547 1296.87 576.936C1294.51 573.7 1291.76 569.928 1289.17 566.372C1281.81 569.499 1286.64 574.721 1287.88 579.362C1287.4 579.393 1286.92 579.423 1286.44 579.453C1283.4 575.137 1280.36 570.815 1277.73 567.073C1272.93 569.867 1268.61 572.348 1264.33 574.89C1261.35 576.658 1259.57 575.161 1260.01 572.427C1260.8 567.459 1262.43 562.618 1263.73 557.735C1264.06 556.503 1264.6 555.314 1264.82 554.071C1265.59 549.67 1266.6 545.27 1266.89 540.833C1267.18 536.578 1266.91 532.256 1266.48 528C1266.14 524.801 1264.61 521.674 1264.59 518.511C1264.56 512.916 1265.15 507.296 1265.72 501.712C1265.95 499.539 1266.36 497.167 1267.47 495.362C1268.94 492.948 1268.63 491.578 1266.72 489.58C1262.69 485.348 1262.81 480.272 1265.89 475.533C1266.88 474.018 1267.35 471.097 1266.54 469.678C1263.48 464.252 1263.72 458.892 1267.01 454.171C1272.03 446.97 1277.74 440.246 1283.28 433.419C1284 432.531 1285.42 432.151 1286.59 431.71C1289.6 430.564 1292.65 429.513 1295.92 428.342C1294.38 426.024 1293.45 424.636 1293.24 424.322C1299.61 418.395 1305.53 412.883 1311.4 407.409C1306.58 401.415 1306.39 398.33 1310.31 395.336C1313.07 393.236 1315.87 391.171 1318.77 389.282C1321.64 387.423 1324.67 385.805 1327.75 384.012C1328.05 384.779 1328.44 385.268 1328.34 385.624C1327.29 389.596 1328.1 392.867 1332.43 393.851C1336.48 394.769 1338.02 392.674 1338.95 386.433C1339.14 385.159 1339.73 383.288 1340.64 382.908C1343.92 381.549 1344.62 378.936 1343.89 376.207C1342.49 371.028 1344.24 368.644 1349.22 368.885C1349.78 366.338 1349.6 362.976 1350.85 362.312C1354.5 360.368 1353.56 357.761 1353.24 353.475C1350.21 354.809 1347.53 355.479 1345.5 357.018C1343.36 358.63 1341.3 359.801 1339.96 357.048C1337.72 352.437 1335.98 347.553 1334.39 342.67C1332.68 337.449 1334.02 331.757 1330.61 326.511C1328.55 323.33 1330.41 317.94 1326.51 314.741C1326.1 314.403 1326.58 313.135 1326.33 312.399C1324.7 307.491 1328.67 304.002 1329.5 299.723C1330.15 296.391 1330.17 292.358 1335.5 292.883C1336.05 292.938 1336.85 291.362 1337.39 290.457C1338.07 289.31 1338.59 288.073 1339.3 286.624C1343.14 291.23 1346.55 295.334 1350.47 300.036C1351.17 297.205 1351.59 295.527 1352.29 292.696C1353.96 296.155 1355.06 298.425 1356.31 301.014C1362.48 288.869 1356.12 277.793 1355.15 266.885C1356.3 264.64 1357.41 262.473 1358.86 259.642C1350.29 260.077 1347.31 254.173 1343.78 249.718C1342.64 248.282 1344.4 244.545 1344.83 241.859C1345.33 241.908 1345.84 241.962 1346.34 242.01C1346.87 243.767 1346.89 246.556 1348.01 247.105C1354.06 250.057 1355.89 258.634 1363.88 258.875C1364.5 258.894 1365.22 259.763 1365.66 260.397C1368.62 264.706 1371.01 269.342 1369.63 274.708C1368.37 279.628 1369.58 283.31 1371.66 288.103C1377.54 301.696 1381.8 315.978 1387.31 329.807C1389.41 335.083 1394.33 342.061 1388.21 348.549C1387.93 348.845 1388.07 349.908 1388.38 350.348C1390.26 353.022 1389.2 354.996 1387.33 357.181C1385.15 359.723 1385.56 361.346 1389.1 362.789C1391.41 363.725 1393.81 366.242 1394.66 368.596C1397.51 376.455 1399.73 384.507 1406.9 389.873C1408.43 391.014 1410.14 392.427 1410.81 394.099C1414.09 402.187 1421.5 405.157 1428.56 407.898C1436.26 410.885 1443.64 413.535 1450.78 418.376C1462.93 426.61 1476.74 432.387 1489.87 439.147C1490.83 439.642 1492.06 440.083 1493.08 439.938C1497.91 439.25 1499.98 442.099 1501.42 445.564C1499.57 448.177 1497.93 450.465 1496.3 452.759C1496.84 452.789 1497.39 452.819 1497.94 452.855C1498.33 456.942 1498.5 461.071 1499.24 465.091C1499.54 466.733 1501.1 468.145 1502.1 469.66C1503.42 468.706 1505.65 467.946 1505.9 466.763C1506.89 462.139 1509.98 457.129 1504.64 452.958L1504.62 452.904ZM654.755 437.662C644.39 437.958 640.171 443.215 642.085 453.32C642.912 457.684 641.185 461.107 637.751 463.799C634.859 466.063 631.823 468.061 631.793 472.558C631.787 473.759 629.366 475.358 627.749 476.046C624.543 477.405 621.012 478.014 617.837 479.427C616.563 479.994 615.99 481.98 614.873 483.097C614.022 483.948 612.821 484.455 611.771 485.113C608.855 480.018 602.137 481.889 598.606 477.942C596.801 475.926 595.044 473.867 593.264 471.827L594.302 470.723C595.141 471.211 596.095 471.574 596.807 472.201C599.396 474.477 601.853 476.723 605.596 474.121C606.374 473.578 607.841 473.723 608.904 473.952C613.038 474.851 615.543 472.835 617.789 469.69C620.771 465.525 623.728 461.209 629.318 460.069C630.012 459.924 631.123 459.205 631.129 458.735C631.195 453.35 633.568 449.191 637.147 445.304C637.932 444.453 637.31 441.145 636.242 439.962C632.861 436.213 632.004 432.501 633.791 427.678C635.396 423.344 635.988 418.648 637.358 414.211C638.469 410.608 640.244 407.215 641.421 403.624C642.755 399.556 643.781 395.391 644.861 391.244C645.332 389.439 645.616 387.592 646.262 384.362C647.409 386.384 648.012 387.157 648.284 388.032C648.513 388.769 648.091 389.753 648.404 390.417C652.992 400.032 645.942 406.787 642.664 414.507C641.831 416.469 641.867 418.793 641.421 420.936C641.052 422.723 640.901 424.666 640.056 426.211C638.046 429.9 639.863 432.254 643.37 434.318C647.71 436.865 650.409 434.976 653.565 432.785C655.286 434.071 656.867 435.26 659.264 437.052C657.097 437.348 655.92 437.62 654.737 437.656L654.755 437.662ZM665.638 388.274C663.459 385.479 663.489 381.562 666.694 377.988C669.483 382.98 671.831 387.193 674.288 391.594C669.7 394.594 667.322 390.435 665.638 388.274ZM875.3 340.974C872.68 345.803 867.604 343.431 864.857 346.582C864.453 346.177 864.048 345.773 863.644 345.368C866.602 342.368 869.668 339.459 872.463 336.32C873.737 334.896 874.545 333.03 875.445 331.304C876.525 329.24 877.479 327.115 878.487 325.014C879.024 325.201 879.562 325.389 880.093 325.576V330.936C881.614 331.395 882.912 331.793 885.362 332.535C881.469 335.662 877.111 337.63 875.294 340.98L875.3 340.974ZM1338.72 552.036C1343.12 552.386 1349.86 560.288 1350.94 567.302C1348.53 566.306 1346.63 565.908 1345.21 564.845C1342.99 563.185 1341.1 561.079 1338.69 558.803C1338.92 558.489 1339.94 557.143 1341.04 555.682C1340.29 554.505 1339.56 553.346 1338.73 552.03L1338.72 552.036Z" fill="#006AAB" fill-opacity="0.39"/>
<path d="M515.885 328.672C517.805 330.392 519.181 332.819 520.431 335.131C521.125 336.411 521.058 338.101 521.33 339.61C515.831 343.099 515.517 345.399 520.28 349.944C522.441 352.008 524.982 353.686 527.396 355.473C530.288 357.616 533.227 359.686 536.626 362.137C542.427 360.06 542.227 359.463 540.284 353.24C538.871 348.718 539.04 343.66 538.793 338.825C538.34 329.867 546.181 324.755 549.084 317.318C549.302 316.763 550.479 316.159 551.101 316.256C555.006 316.865 556.37 314.191 558 311.475C560.294 307.654 566.559 305.125 569.107 306.181C571.286 303.948 572.988 301.527 575.282 299.97C581.366 295.841 585.429 288.127 594.561 289.087C595.72 289.207 597.084 286.745 598.449 285.586C599.855 284.396 601.237 282.996 602.891 282.332C604.587 281.65 607.406 282.429 608.318 281.36C611.113 278.101 614.662 277.914 618.036 278.62C623.879 279.833 629.553 277.714 635.119 277.346C641.493 276.93 649.129 274.69 654.072 268.388C656.662 265.093 657.127 262.346 655.557 258.773C653.765 254.692 650.445 253.207 646.545 254.517C642.646 255.827 639.103 258.169 635.372 259.998C633.585 260.873 631.787 262.026 629.885 262.322C625.099 263.065 620.65 262.401 616.497 259.262C615.181 258.266 612.29 259.135 610.171 259.461C607.316 259.902 604.503 260.644 601.672 261.266C597.579 262.171 591.32 261.809 589.847 264.284C586.907 269.227 581.052 264.652 579.048 269.234C577.793 268.521 576.604 267.839 575.191 267.036C574.412 268.413 573.03 269.765 573.29 270.568C575.336 276.797 571.666 277.34 567.054 277.044C566.644 278.071 566.457 279.139 565.865 279.893C562.177 284.608 556.769 286.195 551.336 287.765C546.543 289.147 546.272 290.336 549.748 293.988C548.909 295.328 548.076 296.662 547.485 297.61C544.189 297.447 541.243 297.302 538.4 297.157C537.936 299.348 537.616 300.863 537.555 301.153C534.018 302.722 531.38 303.893 527.662 305.541C533.336 307.72 531.06 309.936 528.628 311.071C526.014 312.29 522.899 313.062 520.038 312.972C514.744 312.803 513.761 316.666 512.36 320.149C510.821 323.982 513.169 326.282 515.855 328.684L515.885 328.672Z" fill="#006AAB" fill-opacity="0.39"/>
<path d="M771.483 199.588C771.863 200.306 771.743 201.284 771.869 202.292H766.147C766.557 205.177 766.014 208.877 767.511 210.115C769.847 212.052 773.565 212.318 777.024 213.399C776.493 214.081 775.407 215.469 773.777 217.563C778.799 218.421 780.863 222.121 782.819 225.948C783.006 226.31 783.592 226.521 784.032 226.69C788.318 228.32 792.64 229.871 796.895 231.568C800.559 233.028 803.089 231.048 805.521 228.875C808.087 226.588 806.662 224.264 805.394 221.952C804.875 221.004 804.248 219.93 804.26 218.916C804.296 215.493 804.773 212.071 804.761 208.648C804.743 203.409 801.712 201.193 796.521 202.25C794.608 196.696 787.135 191.843 794.288 185.662C791.324 181.902 788.855 178.316 785.873 175.231C784.871 174.193 781.328 173.698 781.032 174.193C778.032 179.24 767.747 179.813 771.64 189.091C771.682 189.193 771.568 189.417 771.465 189.525C768.266 192.893 769.684 196.207 771.477 199.588H771.483Z" fill="#006AAB" fill-opacity="0.39"/>
<path d="M1006.7 224.783C1006.23 228.875 1009.3 229.394 1012.03 230.282C1014.26 231.006 1016.55 231.555 1018.72 232.412C1022.64 233.964 1027.13 231.549 1028.69 227.553C1029.95 224.3 1031.28 219.887 1033.89 218.571C1039.79 215.602 1043.9 212.451 1043.16 205.207C1042.97 203.312 1044.05 201.169 1043.54 199.443C1042.68 196.624 1041 194.064 1039.56 191.185C1035.22 192.29 1029.59 190.316 1025.69 195.048C1025.34 195.471 1023.97 194.952 1023.08 195.048C1020.39 195.338 1017.48 195.253 1015.15 196.358C1014.48 196.678 1015.47 200.505 1015.68 202.72C1015.72 203.173 1015.62 203.638 1015.58 204.296H1003.3C998.873 211.811 999.398 216.157 1005.71 222.688C1006.22 223.219 1006.77 224.113 1006.7 224.765V224.783Z" fill="#006AAB" fill-opacity="0.39"/>
<path d="M806.849 248.904C808.425 248.56 810.121 248.469 811.564 247.823C815.614 246.012 819.815 244.352 823.479 241.914C827.059 239.529 830.481 236.608 833.161 233.27C835.014 230.964 831.145 224.439 828.658 222.863C824.457 220.213 820.684 216.888 816.731 213.851C813.447 212.886 811.551 215.385 810.863 219.006C809.246 227.523 807.664 236.046 806.234 244.594C806.004 245.958 806.626 247.461 806.849 248.898V248.904Z" fill="#006AAB" fill-opacity="0.39"/>
<path d="M84.5553 392.553C88.7565 390.103 89.6679 384.942 87.0241 380.97C85.7866 379.111 84.7182 376.654 84.7907 374.505C84.9355 370.171 83.2333 367.473 79.2917 365.752C78.0663 366.549 76.7685 367.388 74.7887 368.674C74.2273 366.718 74.2575 365.082 73.4728 364.449C71.7585 363.072 69.5492 361.195 67.6961 361.352C64.5271 361.624 61.4728 363.29 58.1528 364.449C61.4124 373.859 65.9999 383.239 73.6237 390.99C78.5371 395.988 78.3742 396.151 84.5492 392.547L84.5553 392.553Z" fill="#006AAB" fill-opacity="0.39"/>
<path d="M599.33 144.477C597.024 151.328 597.199 151.533 603.737 154.75C605.282 155.511 607.25 157.992 607.02 159.35C605.904 166.044 610.829 164.39 614.97 165.67C613.328 163.515 611.101 161.595 611.439 160.871C613.66 156.096 609.145 155.656 606.091 152.734C608.879 152.149 610.926 151.129 612.73 151.461C617.046 152.257 620.342 151.43 622.582 147.265C617.499 141.271 626.668 141.374 626.982 137.239C623.934 136.207 621.085 135.223 620.753 138.784C617.62 139.581 615.284 140.179 612.67 140.849C610.461 133.515 602.27 137.45 597.326 133.557C597.139 136.382 597.791 138.634 598.431 140.891C598.769 142.092 599.656 143.487 599.33 144.471V144.477Z" fill="#006AAB" fill-opacity="0.39"/>
<path d="M639.966 171.996C642.211 171.066 645.549 170.119 647.264 171.115C650.584 173.046 652.612 171.767 654.899 169.992C656.336 168.875 657.628 167.584 659.324 166.062C660.229 171.29 663.555 171.507 666.658 170.475C671.596 168.821 673.714 163.563 671.481 158.753C669.984 159.501 668.559 160.479 666.99 160.938C664.545 161.656 662.004 162.018 659.499 162.537C659.481 160.775 659.481 159.012 659.42 157.25C659.408 156.797 659.203 156.344 659.101 155.922C653.481 154.962 651.465 156.688 652.527 161.934C651.042 160.938 649.793 160.105 648.248 159.072C646.412 161.469 644.74 163.666 643.298 165.549C642.006 164.481 640.63 162.718 640.02 162.948C635.511 164.674 628.654 162.326 627.435 170.903C631.503 172.044 635.336 173.916 639.966 172.002V171.996Z" fill="#006AAB" fill-opacity="0.39"/>
<path d="M1234.37 63.7305C1236.29 59.8431 1236.75 55.2315 1237.82 51.0725C1237.21 47.4327 1237.09 43.823 1235.85 40.66C1235.3 39.2596 1231.53 37.5212 1230.82 38.0584C1227.43 40.6117 1223.63 43.4005 1221.77 47.0282C1218.83 52.7687 1222.55 57.99 1225.3 63.0604C1227.74 67.5635 1232.15 68.2335 1234.37 63.7305Z" fill="#006AAB" fill-opacity="0.39"/>
<path d="M1064.16 230.879C1058.07 229.286 1051.28 226.877 1047.68 234.054C1045.44 232.243 1043.87 230.318 1041.88 229.636C1040.87 229.292 1037.75 231.573 1037.89 232.062C1038.68 235.099 1040.13 237.966 1041.51 241.225C1043.54 239.692 1044.56 238.926 1046.11 237.754C1047.42 241.968 1048.53 245.535 1049.34 248.137C1052.85 246.211 1055.43 244.726 1058.07 243.362C1061.47 241.612 1064.92 239.958 1069.43 237.73C1067.32 234.863 1066.12 231.392 1064.14 230.873L1064.16 230.879Z" fill="#006AAB" fill-opacity="0.39"/>
<path d="M1051.04 195.495C1053.33 195.821 1055.85 193.938 1058.35 193.551C1065.99 192.368 1070.75 188.511 1071.82 180.513C1072.29 177.066 1069.53 174.145 1066.19 175.334C1064.29 176.01 1062.1 177.012 1061.02 178.551C1058.99 181.406 1057.13 182.481 1054.96 180.278C1051.12 182.734 1047.75 184.883 1043.42 187.648C1044.33 190.72 1046.14 194.801 1051.04 195.489V195.495Z" fill="#006AAB" fill-opacity="0.39"/>
<path d="M468.241 365.662C472.581 367.062 479.113 363.277 479.396 358.762C477.966 356.438 476.746 352.611 474.133 350.843C472.304 349.605 467.777 350.197 465.887 351.736C463.533 353.65 461.704 357.265 461.372 360.338C460.919 364.485 465.404 364.75 468.241 365.662Z" fill="#006AAB" fill-opacity="0.39"/>
<path d="M1409.66 272.867C1408.35 272.958 1406.49 275.191 1406.11 276.761C1405.2 280.431 1405.07 283.847 1408.38 287.239C1410.49 289.406 1410.49 293.626 1414.71 293.324C1414.71 287.728 1414.64 282.453 1414.74 277.183C1414.81 273.543 1412.09 272.698 1409.66 272.861V272.867Z" fill="#006AAB" fill-opacity="0.39"/>
<path d="M888.591 314.076C889.358 316.183 892.183 318.072 894.507 318.93C896.807 319.781 901.243 314.083 901.491 311.016C901.762 307.624 900.151 306.73 897.531 307.165C893.022 307.123 887.529 311.161 888.591 314.076Z" fill="#006AAB" fill-opacity="0.39"/>
<path d="M639.441 158.747C637.901 156.465 636.471 154.34 634.66 151.66C636.079 151.388 637.539 151.105 638.807 150.863C639.646 153.634 639.815 155.692 640.853 157.117C641.668 158.234 643.551 158.578 644.958 159.266C644.686 157.618 644.662 155.879 644.083 154.346C643.28 152.203 642.272 150.067 640.938 148.219C640.25 147.272 638.203 146.155 637.582 146.511C634.968 148.026 632.656 150.067 630.181 151.962C633.59 157.125 636.676 159.388 639.441 158.753V158.747Z" fill="#006AAB" fill-opacity="0.39"/>
<path d="M1516.45 607.038C1515.92 606.851 1513.94 608.783 1513.79 609.905C1513.4 612.797 1513.66 615.772 1513.66 618.718C1513.47 618.718 1513.27 618.73 1513.08 618.73C1513.36 620.469 1513.42 622.292 1514.02 623.915C1514.32 624.754 1515.55 625.744 1516.38 625.768C1517.15 625.787 1518.51 624.676 1518.62 623.915C1519.29 619.316 1519.91 614.68 1519.96 610.05C1519.97 608.994 1517.86 607.539 1516.44 607.038H1516.45Z" fill="#006AAB" fill-opacity="0.39"/>
<path d="M646.497 152.457C647.716 151.425 648.942 150.392 650.149 149.372C651.682 153.229 653.559 151.316 655.515 149.541C653.197 143.396 650.652 140.702 647.879 141.459C647.644 143.403 647.409 145.352 647.173 147.296C646.551 147.441 645.93 147.58 645.308 147.724C646.28 143.306 644.65 141.99 640.63 142.636C641.831 144.93 642.718 146.807 643.769 148.588C644.572 149.94 645.58 151.171 646.497 152.457Z" fill="#006AAB" fill-opacity="0.39"/>
<path d="M1276.26 561.905C1279.27 560.439 1283.54 564.616 1285.59 559.485C1287.18 555.543 1285.68 552.338 1282.61 549.718C1274.18 553.473 1275.83 556.074 1276.26 561.905Z" fill="#006AAB" fill-opacity="0.39"/>
<path d="M1486.42 301.678C1491.24 302.137 1496.61 303.133 1499.89 296.113H1482.4C1482.19 296.753 1481.98 297.392 1481.78 298.032C1483.32 299.306 1484.78 301.521 1486.42 301.678Z" fill="#006AAB" fill-opacity="0.39"/>
<path d="M1522.03 577.026C1522.35 578.704 1522.2 580.491 1522.68 582.109C1523.11 583.563 1524.09 584.849 1524.83 586.213C1525.98 584.94 1527.97 583.751 1528.11 582.38C1528.54 578.113 1528.27 573.779 1528.27 569.083C1523.22 570.169 1521.27 573.024 1522.03 577.032V577.026Z" fill="#006AAB" fill-opacity="0.39"/>
<path d="M624.598 154.509C621.749 155.143 619.159 156.912 616.461 158.221L616.672 160.244C618.471 161.27 620.185 162.682 622.117 163.105C622.751 163.244 623.94 160.799 624.393 160.195C626.366 158.958 627.797 158.064 629.222 157.177C627.664 156.223 625.877 154.231 624.598 154.515V154.509Z" fill="#006AAB" fill-opacity="0.39"/>
<path d="M1511.59 637.081C1510.5 637.014 1508.33 638.324 1508.37 638.928C1508.55 642.055 1509.3 645.151 1509.85 648.26C1510.67 648.218 1511.5 648.175 1512.33 648.127C1513 645.26 1513.9 642.417 1514.2 639.507C1514.28 638.741 1512.56 637.135 1511.58 637.075L1511.59 637.081Z" fill="#006AAB" fill-opacity="0.39"/>
<path d="M1002.9 231.338C1003.37 225.386 1001.99 223.418 996.115 222.187C995.56 228.537 998.433 232.274 1002.9 231.338Z" fill="#006AAB" fill-opacity="0.39"/>
<path d="M1530 548.891C1529.59 545.137 1529.55 542.414 1528.85 539.879C1528.65 539.179 1526.49 539.022 1525.23 538.618C1525.1 541.461 1524.69 544.34 1525.06 547.117C1525.14 547.787 1527.77 548.131 1530 548.885V548.891Z" fill="#006AAB" fill-opacity="0.39"/>
<path d="M695.795 357.187C695.113 356.366 692.173 356.167 691.388 356.892C688.038 359.97 690.459 362.535 693.036 365.578C695.233 362.735 698.801 360.815 695.795 357.187Z" fill="#006AAB" fill-opacity="0.39"/>
<path d="M846.223 239.897C845.372 238.612 844.702 236.445 843.658 236.245C841.087 235.751 838.346 236.161 835.672 236.203C835.624 236.849 835.575 237.495 835.533 238.141C838.98 238.479 841.081 243.652 846.229 239.897H846.223Z" fill="#006AAB" fill-opacity="0.39"/>
<path d="M716.179 338.01C718.847 338.897 721.177 339.676 723.712 340.521C724.473 337.956 725.541 335.517 721.551 334.648C718.739 334.032 716.336 333.803 716.179 338.01Z" fill="#006AAB" fill-opacity="0.39"/>
<path d="M769.159 176.384C768.737 175.871 768.314 175.364 767.897 174.851C765.58 175.642 763.262 176.433 759.73 177.646C762.018 179.903 763.117 180.984 765.157 183C766.859 180.181 768.012 178.286 769.159 176.39V176.384Z" fill="#006AAB" fill-opacity="0.39"/>
<path d="M671.3 341.56C670.781 342.537 671.511 344.185 671.668 345.344C674.716 344.94 677.022 344.632 679.322 344.33C679.642 343.902 679.962 343.473 680.288 343.045C678.471 342.012 676.751 340.642 674.801 340.087C673.793 339.803 671.783 340.654 671.3 341.56Z" fill="#006AAB" fill-opacity="0.39"/>
<path d="M1014.69 252.042C1017.07 253.533 1019.34 254.952 1023.13 257.33C1022.81 254.39 1023.24 251.976 1022.33 251.252C1020 249.398 1017.11 248.686 1014.69 252.042Z" fill="#006AAB" fill-opacity="0.39"/>
<path d="M793.787 275.717C794.885 272.179 795.7 269.541 796.521 266.904C796.129 266.855 795.736 266.807 795.344 266.759C793.056 268.292 790.769 269.825 788.185 271.558C789.616 272.62 791.076 273.7 793.793 275.717H793.787Z" fill="#006AAB" fill-opacity="0.39"/>
<path d="M1510.07 282.634C1506.02 284.131 1502.92 285.284 1499.06 286.708C1503.1 291.054 1503.62 290.813 1510.07 282.634Z" fill="#006AAB" fill-opacity="0.39"/>
<path d="M672.598 147.471C670.883 146.245 668.903 145.394 667.008 144.422C666.483 145.316 665.952 146.215 665.427 147.108C667.358 148.358 669.284 149.607 671.215 150.857C671.71 149.68 672.827 147.634 672.598 147.471Z" fill="#006AAB" fill-opacity="0.39"/>
<path d="M727.696 180.09H718.123C722.535 185.366 724.262 185.203 727.696 180.09Z" fill="#006AAB" fill-opacity="0.39"/>
<path d="M719.644 312.779C720.012 312.302 720.38 311.819 720.742 311.342C720.217 309.398 719.698 307.455 719.173 305.511C718.624 305.481 718.08 305.445 717.531 305.415C716.885 307.093 715.654 308.831 715.823 310.425C715.919 311.336 718.292 312.006 719.644 312.785V312.779Z" fill="#006AAB" fill-opacity="0.39"/>
<path d="M707.62 212.813C708.199 212.632 708.773 212.457 709.352 212.276C708.863 210.664 708.809 208.141 707.789 207.664C706.455 207.036 704.366 208.026 702.604 208.322L702.791 209.771L707.62 212.807V212.813Z" fill="#006AAB" fill-opacity="0.39"/>
<path d="M640.515 180.417C641.632 179.288 642.996 178.304 643.732 176.97C644.022 176.451 642.899 175.153 641.825 173.028C640.165 175.328 638.958 176.511 638.463 177.942C638.282 178.473 639.779 179.578 640.515 180.423V180.417Z" fill="#006AAB" fill-opacity="0.39"/>
<path d="M1514.37 482.451C1514.31 481.932 1514.26 481.407 1514.2 480.888C1512.54 479.813 1510.88 478.733 1509.21 477.658C1508.81 477.9 1508.41 478.141 1508.01 478.389C1508.75 480.224 1509.27 482.203 1510.38 483.767C1510.62 484.099 1512.98 482.928 1514.36 482.451H1514.37Z" fill="#006AAB" fill-opacity="0.39"/>
<path d="M727.612 295.931C725.397 294.851 723.393 291.157 719.777 296.813C722.867 297.175 725.167 297.446 727.461 297.718C727.509 297.121 727.558 296.529 727.606 295.931H727.612Z" fill="#006AAB" fill-opacity="0.39"/>
<path d="M762.917 267.489C762.688 267.073 762.459 266.662 762.229 266.246C760.648 266.861 759.066 267.471 757.485 268.087C758.01 269.372 758.535 270.652 759.422 272.807C761.101 270.254 762.012 268.871 762.924 267.489H762.917Z" fill="#006AAB" fill-opacity="0.39"/>
<path d="M331.6 358.105C332.125 358.147 332.65 358.183 333.175 358.225C334.153 357.121 335.131 356.016 337.249 353.62H330.936C331.159 355.117 331.382 356.608 331.606 358.105H331.6Z" fill="#006AAB" fill-opacity="0.39"/>
<path d="M1033.65 156.181C1033.23 156.211 1032.81 156.235 1032.39 156.266V161.602C1033.76 161.421 1035.13 161.24 1037.41 160.944C1035.57 158.608 1034.61 157.394 1033.65 156.181Z" fill="#006AAB" fill-opacity="0.39"/>
<path d="M1521.92 641.976C1522.95 642.821 1523.87 643.901 1525.04 644.39C1525.49 644.578 1526.5 643.394 1528.1 642.223C1526.23 641.119 1525.21 640.129 1524.11 640.014C1523.45 639.948 1522.65 641.27 1521.92 641.97L1521.92 641.976Z" fill="#006AAB" fill-opacity="0.39"/>
</g>
<defs>
<clipPath id="clip0_443_6245">
<rect width="1530" height="856.895" fill="white"/>
</clipPath>
</defs>
</svg>
