<svg width="84" height="106" viewBox="0 0 84 106" fill="none" xmlns="http://www.w3.org/2000/svg">
<path d="M83.0287 41.5144C83.0287 62.7944 62.2868 70.5941 45.365 99.0122C43.6815 101.839 39.3746 101.83 37.6608 99.0212C22.6027 74.3427 0 62.5522 0 41.5144C0 18.5866 18.5866 0 41.5144 0C64.4421 0 83.0287 18.5866 83.0287 41.5144Z" fill="white"/>
<path fill-rule="evenodd" clip-rule="evenodd" d="M41.5144 76.3864C60.7737 76.3864 76.3864 60.7737 76.3864 41.5144C76.3864 22.2551 60.7737 6.6423 41.5144 6.6423C22.2551 6.6423 6.6423 22.2551 6.6423 41.5144C6.6423 60.7737 22.2551 76.3864 41.5144 76.3864ZM37.6608 99.0212C39.3746 101.83 43.6815 101.839 45.365 99.0122C62.2868 70.5941 83.0287 62.7944 83.0287 41.5144C83.0287 18.5866 64.4421 0 41.5144 0C18.5866 0 0 18.5866 0 41.5144C0 62.5522 22.6027 74.3427 37.6608 99.0212Z" fill="url(#paint0_linear_731_2324)"/>
<g clip-path="url(#clip0_731_2324)">
<path d="M17 25H24.4069C27.8535 25 29.8867 25.4003 31.5551 26.4169C33.5884 27.6142 34.7502 30.0477 34.7502 33.133C34.7502 35.8216 33.808 38.032 32.0617 39.3036C30.4287 40.5009 28.4698 40.9756 24.839 40.9756H19.6886V51.829H17V25ZM24.6584 38.5385C27.1273 38.5385 28.6894 38.287 29.8123 37.6317C31.2292 36.8701 32.0262 35.1981 32.0262 33.0976C32.0262 30.4834 30.9352 28.6308 29.0118 28.0145C27.8145 27.6142 26.1461 27.4371 23.4965 27.4371H19.6886V38.542H24.6619L24.6584 38.5385Z" fill="#1D1D1B"/>
<path d="M17 25H24.4069C27.8535 25 29.8867 25.4003 31.5551 26.4169C33.5884 27.6142 34.7502 30.0477 34.7502 33.133C34.7502 35.8216 33.808 38.032 32.0617 39.3036C30.4287 40.5009 28.4698 40.9756 24.839 40.9756H19.6886V51.829H17V25ZM24.6584 38.5385C27.1273 38.5385 28.6894 38.287 29.8123 37.6317C31.2292 36.8701 32.0262 35.1981 32.0262 33.0976C32.0262 30.4834 30.9352 28.6308 29.0118 28.0145C27.8145 27.6142 26.1461 27.4371 23.4965 27.4371H19.6886V38.542H24.6619L24.6584 38.5385Z" fill="#1D1D1B"/>
<path d="M62.4789 49.392V25H59.7903V49.392H54.6221V25H51.9371V49.392H46.8434V45.7186C46.1278 46.9974 45.221 48.1415 44.1548 49.1298V51.8255H63.0881L64.1048 56.7634H65.9928V49.3955H62.4718L62.4789 49.392Z" fill="#1D1D1B"/>
<path d="M46.8468 31.1564V25H44.1582V27.6921C45.2209 28.6946 46.1312 29.8564 46.8468 31.1564Z" fill="#1D1D1B"/>
<path d="M34.0524 25C33.2873 25 32.5434 25.0708 31.8137 25.1807C31.9377 25.248 32.0617 25.3117 32.1821 25.3861C33.0216 25.8785 33.6876 26.6011 34.2614 27.4158C39.8192 27.5681 44.1231 31.5603 44.7784 36.9976H35.2356C34.8778 37.8973 34.3712 38.6766 33.7514 39.3461H44.8103C44.3179 44.9925 39.6209 49.4451 33.9037 49.4451C29.7344 49.4451 26.9963 47.341 24.8922 44.571H22.0229C24.6194 49.3778 28.6151 51.8326 33.8753 51.8326C41.6222 51.8326 47.4811 46.08 47.4811 38.5066C47.4811 30.9333 41.7639 25 34.0524 25Z" fill="url(#paint1_linear_731_2324)"/>
<path d="M24.3963 55.269C24.2157 55.138 24.0102 55.0884 23.6348 55.0884H23.1955V54.3516H24.5239V53.9513H22.774V56.8347H23.5923C23.95 56.8347 24.1626 56.7922 24.3397 56.6789C24.5664 56.5443 24.6939 56.275 24.6939 55.9456C24.6939 55.6481 24.5876 55.4036 24.3963 55.2655V55.269ZM23.1955 55.4887H23.6135C23.8544 55.4887 23.9925 55.5099 24.0882 55.5701C24.198 55.6268 24.2653 55.772 24.2653 55.9527C24.2653 56.1759 24.1767 56.3317 24.0173 56.3849C23.9075 56.4238 23.7481 56.4415 23.5002 56.4415H23.1991V55.4922L23.1955 55.4887ZM29.7381 53.9549H30.1631V56.8383H29.7381V55.556H28.4735V56.8383H28.0484V53.9549H28.4735V55.1557H29.7381V53.9549ZM27.0601 53.9549H27.4498V56.8383H27.0247V54.6775L25.5122 56.8383H25.1225V53.9549H25.5476V56.1192L27.0601 53.9549ZM33.0642 55.9704H33.5318L33.4716 56.0802C33.1847 56.6151 32.7419 56.8843 32.1539 56.8843C31.2931 56.8843 30.6449 56.2467 30.6449 55.4036C30.6449 54.5606 31.286 53.9053 32.1362 53.9053C32.7313 53.9053 33.2378 54.2135 33.461 54.7094L33.507 54.8156H33.043L33.0217 54.7802C32.9225 54.6208 32.8517 54.5464 32.7313 54.472C32.5612 54.3658 32.3629 54.3091 32.1468 54.3091C31.534 54.3091 31.0735 54.7767 31.0735 55.393C31.0735 56.0094 31.5588 56.484 32.1503 56.484C32.3877 56.484 32.6179 56.4061 32.795 56.2644C32.873 56.1971 32.9367 56.1369 33.0394 55.9987L33.0607 55.9704H33.0642ZM21.2367 55.2938C21.056 55.1663 20.8435 55.1167 20.4574 55.1167H20.0075V53.9549H19.5824V56.8383H20.4113C20.7726 56.8383 20.9958 56.7958 21.1764 56.6895C21.4067 56.5584 21.5413 56.2928 21.5413 55.9669C21.5413 55.6764 21.4315 55.432 21.2367 55.2938ZM21.1127 55.9704C21.1127 56.19 21.0206 56.3423 20.8576 56.3884C20.7372 56.4238 20.5707 56.4415 20.3157 56.4415H20.0039V55.517H20.4361C20.677 55.517 20.8222 55.5418 20.9285 55.5985C21.0454 55.6587 21.1127 55.7933 21.1127 55.9704ZM18.7996 54.1143C18.6154 54.0009 18.3993 53.9584 18.0309 53.9584H17.2056V56.8418H17.6306V55.7366H18.0805C18.4666 55.7366 18.6756 55.687 18.8598 55.5524C19.0546 55.4107 19.1644 55.1663 19.1644 54.8617C19.1644 54.5216 19.0334 54.2489 18.8031 54.1143H18.7996ZM18.7323 54.8581C18.7323 55.0459 18.665 55.1911 18.5445 55.2549C18.4454 55.3116 18.3001 55.3363 18.0557 55.3363H17.6306V54.3551H17.9424C18.2009 54.3551 18.3674 54.3729 18.4808 54.4118C18.6437 54.4649 18.7358 54.6279 18.7358 54.8581H18.7323ZM21.7432 53.9584H22.1683V56.8418H21.7432V53.9584ZM60.0031 53.9584H60.3927V56.8418H59.9677V54.681L58.4551 56.8418H58.0655V53.9584H58.4905V56.1227L60.0031 53.9584ZM50.2052 54.1143C50.021 54.0009 49.8049 53.9584 49.4365 53.9584H48.6076V56.8418H49.0327V55.7366H49.4826C49.8687 55.7366 50.0812 55.687 50.2619 55.5524C50.4567 55.4107 50.5665 55.1663 50.5665 54.8617C50.5665 54.5216 50.4354 54.2489 50.2052 54.1143ZM50.1379 54.8581C50.1379 55.0459 50.0706 55.1911 49.9502 55.2549C49.851 55.3116 49.7057 55.3363 49.4649 55.3363H49.0327V54.3551H49.3444C49.603 54.3551 49.7695 54.3729 49.8829 54.4118C50.0458 54.4649 50.1379 54.6244 50.1379 54.8581ZM52.4049 53.9088C51.5548 53.9088 50.8676 54.5783 50.8676 55.4001C50.8676 56.2219 51.5513 56.8879 52.3872 56.8879C53.2232 56.8879 53.9033 56.2219 53.9033 55.4001C53.9033 54.5783 53.2161 53.9088 52.4049 53.9088ZM53.4747 55.4036C53.4747 55.9917 52.9752 56.484 52.3872 56.484C51.7992 56.484 51.2927 55.9952 51.2927 55.3966C51.2927 54.7979 51.785 54.3091 52.3695 54.3091C52.954 54.3091 53.4747 54.7979 53.4747 55.4001V55.4036ZM46.5886 53.9549H48.264V54.3551H47.6406V56.8383H47.2155V54.3551H46.5921V53.9549H46.5886ZM62.4118 53.9549V54.3551H61.7884V56.8383H61.3633V54.3551H60.7399V53.9549H62.4154H62.4118ZM57.2897 56.4415H57.6475V57.3448H57.3181L57.2153 56.8418H54.3886V53.9584H54.8137V56.4451H55.6284V53.9584H56.0535V56.4451H56.8682V53.9584H57.2933V56.4451L57.2897 56.4415ZM42.1607 53.9549H43.8043V54.3551H42.5823V55.184H43.7618V55.5808H42.5823V56.438H43.8043V56.8383H42.1607V53.9549ZM38.8948 55.4072C38.8948 56.2502 38.2466 56.8879 37.3858 56.8879C36.8013 56.8879 36.3585 56.6186 36.0716 56.0838L36.0114 55.974H36.479L36.5002 56.0023C36.7517 56.3317 37.0351 56.4876 37.3893 56.4876C37.9171 56.4876 38.3705 56.0908 38.4555 55.5737H36.7305V55.1734H38.4485C38.3493 54.6633 37.9278 54.3126 37.3929 54.3126C37.0032 54.3126 36.7163 54.465 36.5179 54.7838L36.4967 54.8192H36.0326L36.0787 54.7129C36.3019 54.217 36.8084 53.9088 37.4035 53.9088C38.2536 53.9088 38.8948 54.5535 38.8948 55.4072ZM40.6022 53.9549L41.8419 56.8383H41.3815L40.4002 54.5323L39.419 56.8383H38.9585L40.1983 53.9549H40.6022ZM34.6689 55.3859L36.0929 56.8383H35.5119L34.382 55.6764V56.8383H33.9569V53.9549H34.382V55.1026L35.5226 53.9549H36.0964L34.6724 55.3859H34.6689ZM46.4717 53.9549L45.0477 55.3859L46.4717 56.8383H45.8907L44.7608 55.6764V56.8383H44.3357V53.9549H44.7608V55.1026L45.9014 53.9549H46.4752H46.4717Z" fill="#1D1D1B"/>
<path d="M66.0002 45.7471H63.8784V47.8689H66.0002V45.7471Z" fill="#B42323"/>
<path d="M66.0002 42.1514H63.8784V44.2732H66.0002V42.1514Z" fill="#B42323"/>
<path d="M66.0002 38.5527H63.8784V40.6745H66.0002V38.5527Z" fill="#B42323"/>
<path d="M66 58.418H17V58.9847H66V58.418Z" fill="url(#paint2_linear_731_2324)"/>
</g>
<defs>
<linearGradient id="paint0_linear_731_2324" x1="41.5144" y1="0" x2="41.5144" y2="106" gradientUnits="userSpaceOnUse">
<stop stop-color="#016AAB"/>
<stop offset="1" stop-color="#014A78"/>
</linearGradient>
<linearGradient id="paint1_linear_731_2324" x1="22.0229" y1="38.411" x2="47.4776" y2="38.411" gradientUnits="userSpaceOnUse">
<stop offset="0.31" stop-color="#264990"/>
<stop offset="0.5" stop-color="#0068A8"/>
<stop offset="0.67" stop-color="#006AA9"/>
<stop offset="0.81" stop-color="#0082BC"/>
<stop offset="1" stop-color="#264990"/>
</linearGradient>
<linearGradient id="paint2_linear_731_2324" x1="17" y1="58.7013" x2="66" y2="58.7013" gradientUnits="userSpaceOnUse">
<stop offset="0.31" stop-color="#264990"/>
<stop offset="0.5" stop-color="#0068A8"/>
<stop offset="0.67" stop-color="#006AA9"/>
<stop offset="0.81" stop-color="#0082BC"/>
<stop offset="1" stop-color="#264990"/>
</linearGradient>
<clipPath id="clip0_731_2324">
<rect width="49" height="33.9844" fill="white" transform="translate(17 25)"/>
</clipPath>
</defs>
</svg>
