<svg width="221" height="56" viewBox="0 0 221 56" fill="none" xmlns="http://www.w3.org/2000/svg">
<mask id="mask0_90_707" style="mask-type:luminance" maskUnits="userSpaceOnUse" x="11" y="8" width="25" height="23">
<path fill-rule="evenodd" clip-rule="evenodd" d="M17.7033 8.9445L18.7152 8.93457L29.2409 8.93854C29.4007 8.93987 29.5003 8.94185 29.5992 8.9445C30.121 8.95707 30.6477 8.98487 31.1637 9.07024C31.6806 9.15078 32.1817 9.30154 32.6508 9.51763C33.1181 9.73471 33.5466 10.018 33.9172 10.3575C34.2878 10.6954 34.5982 11.0854 34.8366 11.513C35.0803 11.9478 35.233 12.3932 35.3268 12.8711C35.42 13.3423 35.4508 13.8228 35.4644 14.2993C35.4716 14.5177 35.4745 14.7361 35.4752 14.9551L35.4766 15.3449V23.9731C35.4766 24.2325 35.4766 24.4926 35.4752 24.7527C35.4738 24.9711 35.4716 25.1895 35.4644 25.4079C35.4501 25.8844 35.42 26.3655 35.3268 26.8361C35.2384 27.309 35.0731 27.7668 34.8366 28.1941C34.5981 28.6219 34.2877 29.0121 33.9172 29.3503C33.5452 29.6897 33.1179 29.9731 32.6508 30.1902C32.1818 30.4063 31.6806 30.5571 31.1637 30.6376C30.6477 30.7223 30.121 30.7501 29.5992 30.7633L28.0269 30.7746L18.0609 30.7693C17.9417 30.7681 17.8225 30.7659 17.7033 30.7627C17.1816 30.7507 16.6548 30.7223 16.1388 30.6376C15.6222 30.557 15.1213 30.4063 14.6524 30.1902C13.714 29.754 12.9486 29.0555 12.4652 28.1941C12.229 27.7667 12.0638 27.3089 11.975 26.8361C11.8818 26.3655 11.8517 25.8844 11.8381 25.4085C11.8309 25.1901 11.8288 24.9711 11.8273 24.7527L11.8252 24.3616V15.7348C11.8252 15.4753 11.8252 15.2152 11.8273 14.9558C11.8288 14.7374 11.8316 14.519 11.8381 14.2999C11.8524 13.8234 11.8825 13.3429 11.975 12.8717C12.0637 12.3989 12.229 11.9411 12.4652 11.5137C12.9479 10.652 13.7132 9.9534 14.6517 9.51763C15.1208 9.30153 15.6219 9.15077 16.1388 9.07024C16.6548 8.98553 17.1816 8.95773 17.7033 8.9445Z" fill="white"/>
</mask>
<g mask="url(#mask0_90_707)">
<path d="M-3.94043 -2.98438H76.9216V71.6891H-3.94043V-2.98438Z" fill="#19AA1E"/>
<path fill-rule="evenodd" clip-rule="evenodd" d="M-3.94043 -2.98438H76.9216V21.5153L-3.94043 9.84924V-2.98438Z" fill="#FFB919"/>
<path fill-rule="evenodd" clip-rule="evenodd" d="M-3.94043 8.37402L24.2852 12.4468C27.7987 10.3923 31.9787 9.2655 36.4894 9.2655C42.7372 9.2655 48.353 11.4263 52.4398 15.2185C52.9543 15.6981 53.4395 16.1982 53.8976 16.7186L76.9216 20.0401V22.9929L56.2351 20.0062C57.7833 22.7395 58.5944 25.7775 58.5995 28.8621C58.5995 32.8624 57.6317 36.8514 55.6274 40.8563L55.5686 40.9785L54.716 42.6619H52.7069C48.5514 42.6619 45.7975 43.809 43.9942 45.8431C42.5804 47.4383 41.7621 49.5923 41.4877 51.9409L41.4779 52.0133L41.4387 52.3889L41.4215 52.5518L41.3872 52.8708C41.2819 53.9207 41.2133 54.8099 41.1765 55.5339L76.9216 50.3752V53.3279L-3.94043 64.9962V62.0435L31.8439 56.8802L31.8292 56.2173L31.8243 56.0317L31.8194 55.9344L31.8145 55.7874C31.7826 54.9841 31.7018 53.9546 31.5744 52.7057L31.5499 52.4681L31.5058 52.0585C31.251 49.6964 30.4449 47.5175 29.0311 45.8974C27.2499 43.8497 24.5229 42.6845 20.3993 42.6619H18.2628L17.4126 40.9785C15.3691 36.9329 14.3793 32.9032 14.3793 28.8621C14.3793 23.7802 16.6114 18.8658 20.5414 15.2185L20.8844 14.9085L-3.94043 11.3245V8.37402Z" fill="white"/>
<path fill-rule="evenodd" clip-rule="evenodd" d="M36.489 12.1816C47.7792 12.1816 55.4408 20.2049 55.4408 28.8617C55.4408 32.3371 54.62 35.9528 52.704 39.745C41.5975 39.745 38.8558 47.0894 38.3364 51.7142L38.3021 52.0197C38.1281 53.6714 38.0252 54.9951 37.9983 55.9906L34.9895 56.425V56.3345C34.9476 54.8641 34.8397 53.3959 34.6661 51.9337L34.6587 51.8523C34.1785 47.2388 31.4956 39.745 20.2764 39.745C18.3579 35.9528 17.5371 32.3371 17.5371 28.8617C17.5371 20.2049 25.2012 12.1816 36.489 12.1816Z" fill="#0073FA"/>
</g>
<path fill-rule="evenodd" clip-rule="evenodd" d="M73.8842 8.93457C62.9536 8.93457 54.7578 14.9366 54.8266 25.3602H64.9853C64.8456 21.1908 67.7868 17.1464 73.8842 17.1464C78.5067 17.1464 81.45 19.926 81.45 23.4641C81.45 27.1293 78.2251 29.1505 73.0436 31.4258C66.2474 34.394 62.1839 35.7839 54.8266 37.9937V49.9977H92.658V41.7839H68.5587C72.0696 40.4636 75.4881 39.0142 78.5776 37.678C86.7735 34.1419 91.6067 30.1611 91.6067 23.0234C91.6067 14.4303 84.4622 8.93457 73.8842 8.93457ZM108.071 17.7778H127.688V9.56594H98.2631V49.9977H108.071V17.7778ZM143.101 9.56594H133.293V49.9977H143.03L161.316 24.159V49.9977H171.124V9.56594H161.316L143.101 35.4046V9.56594ZM220.377 34.8348H210.218C208.676 39.3219 203.983 42.4173 198.449 42.4173C190.391 42.4173 185.136 36.1631 185.136 29.7818C185.136 23.4006 190.251 17.1464 198.728 17.1464C204.333 17.1464 208.676 20.2437 210.218 24.7289H220.377C218.906 15.695 210.99 8.93457 198.449 8.93457C184.577 8.93457 175.328 17.7162 175.328 29.7818C175.328 41.8474 184.577 50.6291 198.449 50.6291C210.99 50.6291 218.906 43.9977 220.377 34.8348Z" fill="white"/>
</svg>
