<svg width="201" height="57" viewBox="0 0 201 57" fill="none" xmlns="http://www.w3.org/2000/svg">
<g clip-path="url(#clip0_592_6422)">
<mask id="mask0_592_6422" style="mask-type:luminance" maskUnits="userSpaceOnUse" x="11" y="9" width="23" height="22">
<path fill-rule="evenodd" clip-rule="evenodd" d="M17.4153 9.01L18.3566 9L28.1479 9.004C28.2966 9.00533 28.3893 9.00733 28.4813 9.01C28.9666 9.02267 29.4566 9.05067 29.9366 9.13667C30.4174 9.21779 30.8836 9.36966 31.3199 9.58733C31.7546 9.806 32.1533 10.0913 32.4979 10.4333C32.8428 10.7737 33.1314 11.1666 33.3533 11.5973C33.5799 12.0353 33.7219 12.484 33.8093 12.9653C33.8959 13.44 33.9246 13.924 33.9373 14.404C33.9439 14.624 33.9466 14.844 33.9473 15.0647L33.9486 15.4573V24.1487C33.9486 24.41 33.9486 24.672 33.9473 24.934C33.9459 25.154 33.9439 25.374 33.9373 25.594C33.9239 26.074 33.8959 26.5587 33.8093 27.0327C33.727 27.509 33.5733 27.9702 33.3533 28.4007C33.1313 28.8315 32.8426 29.2246 32.4979 29.5653C32.1519 29.9072 31.7544 30.1927 31.3199 30.4113C30.8836 30.629 30.4174 30.7809 29.9366 30.862C29.4566 30.9473 28.9666 30.9753 28.4813 30.9887L27.0186 31L17.7479 30.9947C17.637 30.9935 17.5261 30.9912 17.4153 30.988C16.9299 30.976 16.4399 30.9473 15.9599 30.862C15.4793 30.7809 15.0134 30.629 14.5773 30.4113C13.7043 29.972 12.9923 29.2684 12.5426 28.4007C12.3229 27.9701 12.1692 27.5089 12.0866 27.0327C11.9999 26.5587 11.9719 26.074 11.9593 25.5947C11.9526 25.3747 11.9506 25.154 11.9493 24.934L11.9473 24.54V15.85C11.9473 15.5887 11.9473 15.3267 11.9493 15.0653C11.9506 14.8453 11.9533 14.6253 11.9593 14.4047C11.9726 13.9247 12.0006 13.4407 12.0866 12.966C12.1692 12.4897 12.3229 12.0286 12.5426 11.598C12.9916 10.7301 13.7035 10.0263 14.5766 9.58733C15.0129 9.36965 15.4791 9.21778 15.9599 9.13667C16.4399 9.05133 16.9299 9.02333 17.4153 9.01Z" fill="white"/>
</mask>
<g mask="url(#mask0_592_6422)">
<path d="M-2.71875 -3.00586H72.5018V72.2147H-2.71875V-3.00586Z" fill="#19AA1E"/>
<path fill-rule="evenodd" clip-rule="evenodd" d="M-2.71875 -3.00586H72.5018V21.6733L-2.71875 9.92178V-3.00586Z" fill="#FFB919"/>
<path fill-rule="evenodd" clip-rule="evenodd" d="M-2.71875 8.43555L23.5377 12.5381C26.806 10.4686 30.6944 9.33355 34.8904 9.33355C40.7023 9.33355 45.9263 11.5102 49.728 15.3301C50.2066 15.8133 50.6579 16.317 51.0841 16.8412L72.5018 20.1871V23.1615L53.2585 20.1529C54.6987 22.9062 55.4532 25.9665 55.4579 29.0737C55.4579 33.1034 54.5576 37.1216 52.6932 41.1558L52.6385 41.2789L51.8454 42.9746H49.9764C46.1109 42.9746 43.5491 44.1301 41.8716 46.1791C40.5565 47.786 39.7952 49.9558 39.5399 52.3216L39.5308 52.3945L39.4944 52.7729L39.4784 52.937L39.4465 53.2583C39.3485 54.3159 39.2847 55.2116 39.2505 55.941L72.5018 50.7444V53.7187L-2.71875 65.4726V62.4982L30.569 57.2971L30.5553 56.6293L30.5508 56.4424L30.5462 56.3444L30.5416 56.1962C30.512 55.3871 30.4368 54.3501 30.3183 53.092L30.2955 52.8526L30.2545 52.4401C30.0174 50.0606 29.2676 47.8657 27.9525 46.2338C26.2955 44.1712 23.7587 42.9974 19.9228 42.9746H17.9354L17.1445 41.2789C15.2436 37.2036 14.3228 33.1444 14.3228 29.0737C14.3228 23.9546 16.3992 19.0042 20.055 15.3301L20.3741 15.0179L-2.71875 11.4076V8.43555Z" fill="white"/>
<path fill-rule="evenodd" clip-rule="evenodd" d="M34.8904 12.2715C45.3929 12.2715 52.52 20.3535 52.52 29.0738C52.52 32.5746 51.7565 36.2168 49.9741 40.0367C39.6425 40.0367 37.0921 47.435 36.6089 52.0937L36.577 52.4014C36.4152 54.0652 36.3194 55.3985 36.2944 56.4014L33.4955 56.839V56.7478C33.4565 55.2666 33.3562 53.7877 33.1946 52.3148L33.1878 52.2327C32.7411 47.5854 30.2454 40.0367 19.8089 40.0367C18.0243 36.2168 17.2607 32.5746 17.2607 29.0738C17.2607 20.3535 24.3901 12.2715 34.8904 12.2715Z" fill="#0073FA"/>
</g>
<path fill-rule="evenodd" clip-rule="evenodd" d="M69.6766 9C59.5086 9 51.8846 15.046 51.9486 25.546H61.3986C61.2686 21.346 64.0046 17.272 69.6766 17.272C73.9766 17.272 76.7146 20.072 76.7146 23.636C76.7146 27.328 73.7146 29.364 68.8946 31.656C62.5726 34.646 58.7926 36.046 51.9486 38.272V50.364H87.1406V42.09H64.7226C67.9886 40.76 71.1686 39.3 74.0426 37.954C81.6666 34.392 86.1626 30.382 86.1626 23.192C86.1626 14.536 79.5166 9 69.6766 9ZM101.479 17.908H119.727V9.636H92.3546V50.364H101.479V17.908ZM134.065 9.636H124.941V50.364H133.999L151.009 24.336V50.364H160.133V9.636H151.009L134.065 35.664V9.636ZM205.949 35.09H196.499C195.065 39.61 190.699 42.728 185.551 42.728C178.055 42.728 173.167 36.428 173.167 30C173.167 23.572 177.925 17.272 185.811 17.272C191.025 17.272 195.065 20.392 196.499 24.91H205.949C204.581 15.81 197.217 9 185.551 9C172.647 9 164.043 17.846 164.043 30C164.043 42.154 172.647 51 185.551 51C197.217 51 204.581 44.32 205.949 35.09Z" fill="white"/>
</g>
<defs>
<clipPath id="clip0_592_6422">
<rect width="200" height="56.4103" fill="white" transform="translate(0.947266)"/>
</clipPath>
</defs>
</svg>
