<svg width="280" height="49" viewBox="0 0 280 49" fill="none" xmlns="http://www.w3.org/2000/svg">
<path fill-rule="evenodd" clip-rule="evenodd" d="M167.395 28.1871L176.772 24.2911C176.256 22.9818 174.706 22.0667 172.881 22.0667C170.534 22.0667 167.277 24.1325 167.395 28.1871ZM178.399 31.9608L181.973 34.3437C180.822 36.0516 178.041 38.9918 173.234 38.9918C167.277 38.9918 162.973 34.38 162.973 28.5042C162.973 22.2615 167.318 18.0121 172.718 18.0121C178.163 18.0121 180.822 22.3431 181.697 24.6897L182.172 25.8812L168.147 31.6799C169.22 33.7865 170.887 34.8602 173.234 34.8602C175.576 34.8602 177.207 33.7049 178.399 31.9608ZM155.67 38.3575H160.278V7.5246H155.67V38.3575ZM148.15 28.5405C148.15 24.8483 145.686 22.1437 142.546 22.1437C139.37 22.1437 136.707 24.8483 136.707 28.5405C136.707 32.1964 139.37 34.8602 142.546 34.8602C145.686 34.8602 148.15 32.1964 148.15 28.5405ZM152.2 18.6509V37.4832C152.2 45.2299 147.634 48.4102 142.229 48.4102C137.142 48.4102 134.084 44.9943 132.933 42.2128L136.947 40.5411C137.663 42.249 139.411 44.274 142.234 44.274C145.69 44.274 147.838 42.1312 147.838 38.1174V36.6088H147.679C146.646 37.8818 144.657 38.9918 142.157 38.9918C136.911 38.9918 132.104 34.4207 132.104 28.5405C132.104 22.6194 136.911 18.0121 142.157 18.0121C144.662 18.0121 146.646 19.1221 147.679 20.3543H147.838V18.6464C147.833 18.6509 152.2 18.6509 152.2 18.6509ZM101.91 28.5042C101.91 24.726 99.2188 22.1483 96.0975 22.1483C92.9761 22.1483 90.2852 24.7305 90.2852 28.5042C90.2852 32.2371 92.9761 34.8602 96.0975 34.8602C99.2143 34.8602 101.91 32.2371 101.91 28.5042ZM106.431 28.5042C106.431 34.543 101.787 38.9918 96.093 38.9918C90.3984 38.9918 85.7549 34.543 85.7549 28.5042C85.7549 22.4246 90.3984 18.0167 96.093 18.0167C101.792 18.0167 106.431 22.4246 106.431 28.5042ZM125.082 28.5042C125.082 24.726 122.391 22.1483 119.27 22.1483C116.148 22.1483 113.457 24.7305 113.457 28.5042C113.457 32.2371 116.148 34.8602 119.27 34.8602C122.391 34.8602 125.082 32.2371 125.082 28.5042ZM129.608 28.5042C129.608 34.543 124.964 38.9918 119.27 38.9918C113.575 38.9918 108.932 34.543 108.932 28.5042C108.932 22.4246 113.575 18.0167 119.27 18.0167C124.964 18.0167 129.608 22.4246 129.608 28.5042ZM68.0461 38.9918C59.0672 38.9918 51.5198 31.6799 51.5198 22.701C51.5198 13.722 59.0717 6.41016 68.0507 6.41016C73.0204 6.41016 76.554 8.35817 79.2178 10.9042L76.0783 14.0436C74.1711 12.2542 71.5888 10.8634 68.0507 10.8634C61.4954 10.8634 56.3671 16.1502 56.3671 22.7055C56.3671 29.2608 61.4954 34.543 68.0507 34.543C72.3001 34.543 74.7237 32.8351 76.2776 31.2858C77.5506 30.0173 78.3842 28.1871 78.7013 25.6864H68.0507V21.2377H83.0277C83.1908 22.0305 83.2678 22.9864 83.2678 24.0193C83.2678 27.3581 82.3527 31.4897 79.4171 34.4298C76.5494 37.4062 72.8935 38.9918 68.0461 38.9918Z" fill="#5AC5EF" fill-opacity="0.5"/>
<path d="M193.057 38.067V10.6963H196.574L206.093 27.3634H206.246L215.764 10.6963H219.281V38.067H215.764V21.8204L215.917 17.2332H215.764L207.201 32.2565H205.137L196.574 17.2332H196.421L196.574 21.8204V38.067H193.057Z" fill="white"/>
<path d="M230.099 38.6792C228.111 38.6792 226.448 38.1058 225.11 36.959C223.772 35.8122 223.104 34.3022 223.104 32.41C223.104 30.3648 223.887 28.7784 225.474 27.6125C227.06 26.4465 229.01 25.8731 231.322 25.8731C233.387 25.8731 235.088 26.2554 236.407 27.0199V26.4847C236.407 25.1086 235.929 24 234.992 23.1781C234.056 22.3562 232.89 21.9357 231.514 21.9357C230.5 21.9357 229.564 22.1842 228.742 22.662C227.92 23.1399 227.347 23.8088 227.041 24.6498L223.83 23.2737C224.269 22.1459 225.11 21.1138 226.391 20.1581C227.672 19.2025 229.354 18.7246 231.437 18.7246C233.826 18.7246 235.814 19.4318 237.401 20.8271C238.987 22.2224 239.771 24.2102 239.771 26.7523V38.0676H236.407V35.4682H236.254C234.858 37.6089 232.794 38.6792 230.099 38.6792ZM230.673 35.4682C232.125 35.4682 233.444 34.933 234.629 33.8435C235.814 32.754 236.407 31.4734 236.407 30.0017C235.413 29.1798 233.922 28.7784 231.934 28.7784C230.233 28.7784 228.933 29.1415 228.073 29.887C227.213 30.6324 226.773 31.4925 226.773 32.4864C226.773 33.4039 227.175 34.1302 227.958 34.6654C228.742 35.2006 229.66 35.4682 230.673 35.4682Z" fill="white"/>
<path d="M253.476 38.6793C252.042 38.6793 250.761 38.3734 249.634 37.7618C248.506 37.1502 247.646 36.3856 247.092 35.4682H246.939L247.092 38.0676V46.3247H243.575V19.3362H246.939V21.9357H247.092C247.646 21.0182 248.506 20.2537 249.634 19.6421C250.761 19.0304 252.042 18.7246 253.476 18.7246C255.903 18.7246 257.986 19.6803 259.745 21.5917C261.503 23.503 262.383 25.8731 262.383 28.7019C262.383 31.5308 261.503 33.9008 259.745 35.8122C257.986 37.7236 255.903 38.6793 253.476 38.6793ZM252.902 35.4682C254.527 35.4682 255.941 34.8565 257.107 33.6141C258.273 32.3717 258.866 30.7471 258.866 28.7019C258.866 26.6568 258.273 25.0321 257.107 23.7897C255.941 22.5473 254.527 21.9357 252.902 21.9357C251.239 21.9357 249.844 22.5473 248.678 23.7706C247.512 24.9939 246.939 26.6377 246.939 28.7019C246.939 30.7662 247.512 32.41 248.678 33.6333C249.844 34.8565 251.258 35.4682 252.902 35.4682Z" fill="white"/>
<path d="M272.57 38.6792C270.487 38.6792 268.748 38.1632 267.391 37.1502C266.033 36.1371 265.02 34.8565 264.39 33.3274L267.524 32.0277C268.518 34.3787 270.219 35.5446 272.609 35.5446C273.698 35.5446 274.596 35.2961 275.304 34.8183C276.011 34.3405 276.355 33.6906 276.355 32.9069C276.355 31.6837 275.495 30.8618 273.794 30.4222L270.009 29.5047C268.805 29.1989 267.677 28.6255 266.607 27.7654C265.536 26.9052 265.001 25.7584 265.001 24.3058C265.001 22.6429 265.728 21.3049 267.199 20.2728C268.671 19.2407 270.41 18.7246 272.417 18.7246C274.08 18.7246 275.552 19.1069 276.852 19.8523C278.151 20.5977 279.088 21.6872 279.642 23.0825L276.584 24.344C275.896 22.6811 274.463 21.8592 272.303 21.8592C271.251 21.8592 270.372 22.0695 269.665 22.5091C268.958 22.9487 268.595 23.5221 268.595 24.2676C268.595 25.3379 269.417 26.0642 271.079 26.4465L274.787 27.3258C276.546 27.7271 277.846 28.4343 278.687 29.4283C279.528 30.4222 279.948 31.5499 279.948 32.7922C279.948 34.4742 279.26 35.8695 277.884 36.9973C276.508 38.1058 274.73 38.6792 272.57 38.6792Z" fill="white"/>
<path d="M9.27246 35.844C10.7567 37.6983 12.2625 40.0215 13.0541 41.4283C14.0178 43.2568 14.4136 44.4915 15.1321 46.6942C15.5537 47.9075 15.9495 48.2775 16.7885 48.2775C17.7048 48.2775 18.1222 47.6579 18.4448 46.6942C19.1117 44.6163 19.6322 43.0373 20.4454 41.5273C22.0501 38.6362 24.0807 36.0634 26.0555 33.594C26.5975 32.9013 30.0608 28.8228 31.6183 25.5875C31.6183 25.5875 33.5198 22.0511 33.5198 17.1078C33.5198 12.4872 31.6398 9.27344 31.6398 9.27344L26.2017 10.7319L22.889 19.431L22.0716 20.6184L21.8995 20.8421L21.6758 21.1132L21.3058 21.5563L20.7637 22.0984L17.821 24.4947L10.4814 28.7453L9.27246 35.844Z" fill="#34A853"/>
<path d="M1.68311 24.9951C3.48574 29.0995 6.92322 32.6832 9.27224 35.8454L21.7057 21.1145C21.7057 21.1145 19.9504 23.4119 16.7882 23.4119C13.2518 23.4119 10.3865 20.5939 10.3865 17.036C10.3865 14.588 11.845 12.9102 11.845 12.9102L3.4126 15.1602L1.68311 24.9951Z" fill="#FBBC04"/>
<path d="M21.8524 1.04492C25.9782 2.37861 29.5146 5.17076 31.6399 9.30091L21.7018 21.1406C21.7018 21.1406 23.1602 19.437 23.1602 17.0148C23.1602 13.3794 20.097 10.6389 16.7843 10.6389C13.6437 10.6389 11.8411 12.9148 11.8411 12.9148V5.44611L21.8524 1.04492Z" fill="#4285F4"/>
<path d="M3.95508 6.25842C6.42456 3.3157 10.7526 0.27832 16.7327 0.27832C19.6238 0.27832 21.8222 1.04412 21.8222 1.04412L11.8411 12.9097H4.7725L3.95508 6.25842Z" fill="#1A73E8"/>
<path d="M1.68328 24.9946C1.68328 24.9946 0.0527344 21.755 0.0527344 17.0871C0.0527344 12.6644 1.78223 8.80529 3.98067 6.28418L11.8667 12.9311L1.68328 24.9946Z" fill="#EA4335"/>
</svg>
