<svg width="201" height="49" viewBox="0 0 201 49" fill="none" xmlns="http://www.w3.org/2000/svg">
<g clip-path="url(#clip0_592_6404)">
<path d="M17.6044 11.4513H14.8051C9.72276 11.4513 7.04707 14.0252 7.04707 17.8424C7.04707 22.1686 8.90115 24.1681 12.7111 26.7493L15.8448 28.8578L6.79259 42.3816H0.0524902L8.16679 30.2829C3.48434 26.9383 0.859558 23.7028 0.859558 18.1842C0.859558 11.2841 5.64379 6.61621 14.7397 6.61621H23.7919V42.3816H17.5826V11.4513H17.6044ZM49.3854 16.4973V42.3816H43.2706V31.5844H35.0908V42.3816H28.976V16.4973H35.0908V26.742H43.2706V16.4973H49.3854ZM77.0147 48.2783H71.3507V42.3526H57.6087V48.2783H51.9447V37.532H53.8642C56.0164 33.2058 56.4454 25.0261 56.4454 18.7004V16.4828H74.2954V37.5247H77.022V48.2711L77.0147 48.2783ZM68.1733 21.3325H61.695V22.0959C61.695 26.5675 61.2296 33.6202 59.521 37.5392H68.1661V21.3325H68.1733ZM90.7494 42.8688C82.9332 42.8688 78.5052 38.499 78.5052 29.4904C78.5052 21.6742 82.0607 15.9666 89.5206 15.9666C95.6354 15.9666 99.5981 19.3693 99.5981 28.3634V31.5989H84.8382C85.0927 35.9251 86.794 38.0337 91.2729 38.0337C94.254 38.0337 97.4459 36.9067 99.3436 35.6052V40.6076C97.5549 41.8436 94.6757 42.8615 90.7567 42.8615L90.7494 42.8688ZM84.8309 27.0837H93.3742V26.5748C93.3742 23.3392 92.4435 20.8235 89.4116 20.8235C86.4959 20.7944 85.0054 22.9684 84.8382 27.0837H84.8309ZM109.835 29.6649V42.3816H103.699V16.4973H109.835V28.4216L118.495 16.4973H124.675L116.03 28.4216L125.846 42.3526H118.888L109.835 29.6576V29.6649ZM125.49 29.454C125.49 21.5724 129.561 15.9738 137.378 15.9738C140.409 15.9738 142.678 16.4828 143.958 17.2099V22.4086C142.722 21.6378 140.402 20.809 138.032 20.809C134.026 20.809 131.815 23.6882 131.815 29.3086C131.815 34.929 133.626 38.0627 137.996 38.0627C140.569 38.0627 142.424 37.4011 143.958 36.3177V41.3056C142.467 42.3889 140.46 42.9052 137.632 42.9052C129.452 42.8833 125.482 38.1136 125.482 29.4686L125.49 29.454Z" fill="white"/>
<path fill-rule="evenodd" clip-rule="evenodd" d="M180.959 0.676758C170.416 0.676758 161.873 9.23458 161.873 19.7773C161.873 24.8306 163.88 29.6876 167.457 33.2721C170.918 36.733 179.054 41.7354 179.534 46.985C179.606 47.7702 180.174 48.4101 180.959 48.4101C181.744 48.4101 182.319 47.7702 182.384 46.985C182.864 41.7281 191 36.733 194.454 33.2794C198.031 29.7021 200.045 24.8379 200.045 19.7773C200.052 9.23458 191.502 0.676758 180.959 0.676758Z" fill="#FF4433"/>
<path d="M188.369 18.8539C188.369 22.8695 185.113 26.1248 181.098 26.1248C177.082 26.1248 173.827 22.8695 173.827 18.8539C173.827 14.8383 177.082 11.583 181.098 11.583C185.113 11.583 188.369 14.8383 188.369 18.8539Z" fill="white"/>
</g>
<defs>
<clipPath id="clip0_592_6404">
<rect width="200" height="47.7333" fill="white" transform="translate(0.0524902 0.676758)"/>
</clipPath>
</defs>
</svg>
