<svg width="1040" height="715" viewBox="0 0 1040 715" fill="none" xmlns="http://www.w3.org/2000/svg">
<g clip-path="url(#clip0_443_6044)">
<path d="M0 0H157.156C230.367 0 273.486 8.43615 308.899 29.985C352.11 55.3852 376.697 107.011 376.697 172.483C376.697 229.518 356.697 276.376 319.633 303.426C284.954 328.827 243.394 338.913 166.33 338.913H57.0642V569.165H0V0ZM162.569 287.196C214.954 287.196 248.073 281.786 271.927 267.94C301.927 251.801 318.899 216.314 318.899 171.749C318.899 116.272 295.78 77.0257 254.954 63.913C229.541 55.4769 194.128 51.6256 137.89 51.6256H57.0642V287.196H162.569Z" fill="#233A4C" fill-opacity="0.1"/>
<path d="M0 0H157.156C230.367 0 273.486 8.43615 308.899 29.985C352.11 55.3852 376.697 107.011 376.697 172.483C376.697 229.518 356.697 276.376 319.633 303.426C284.954 328.827 243.394 338.913 166.33 338.913H57.0642V569.165H0V0ZM162.569 287.196C214.954 287.196 248.073 281.786 271.927 267.94C301.927 251.801 318.899 216.314 318.899 171.749C318.899 116.272 295.78 77.0257 254.954 63.913C229.541 55.4769 194.128 51.6256 137.89 51.6256H57.0642V287.196H162.569Z" fill="#233A4C" fill-opacity="0.1"/>
<path d="M965.321 517.448V0H908.257V517.448H798.624V0H741.651V517.448H633.578V439.505C618.44 466.648 599.174 490.947 576.514 511.854V568.982H978.44L1000 673.7H1040.09V517.356H965.321V517.448Z" fill="#233A4C" fill-opacity="0.1"/>
<path d="M633.486 130.577V0H576.422V57.1274C598.991 78.4012 618.257 103.068 633.486 130.669V130.577Z" fill="#233A4C" fill-opacity="0.1"/>
<path d="M361.927 0C345.688 0 329.908 1.46716 314.404 3.75959C317.064 5.22675 319.725 6.51051 322.293 8.06936C340.183 18.5229 354.22 33.8363 366.422 51.0754C484.404 54.2848 575.78 139.013 589.633 254.277H387.064C379.449 273.35 368.715 289.855 355.596 304.068H590.367C579.908 423.825 480.183 518.273 358.899 518.273C270.367 518.273 212.293 473.708 167.615 414.839H106.514C161.651 516.806 246.422 568.89 358.073 568.89C522.569 568.89 646.789 446.933 646.789 286.187C646.789 125.442 525.596 0 361.927 0Z" fill="#233A4C" fill-opacity="0.1"/>
<path d="M1040.09 440.147H995.046V485.17H1040.09V440.147Z" fill="#233A4C" fill-opacity="0.1"/>
<path d="M1040.09 363.855H995.046V408.878H1040.09V363.855Z" fill="#233A4C" fill-opacity="0.1"/>
<path d="M1040.09 287.563H995.046V332.586H1040.09V287.563Z" fill="#233A4C" fill-opacity="0.1"/>
</g>
<defs>
<clipPath id="clip0_443_6044">
<rect width="1040" height="720.924" fill="white"/>
</clipPath>
</defs>
</svg>
